<svg version="1.1" xmlns="http://www.w3.org/2000/svg" xmlns:xlink="http://www.w3.org/1999/xlink" width="767" height="659"><defs><linearGradient x1="233.5" y1="229.5" x2="583.5" y2="429.5" gradientUnits="userSpaceOnUse" id="color-1"><stop offset="0" stop-color="#ffff00"/><stop offset="0.15" stop-color="#ff0000"/><stop offset="0.3" stop-color="#ff0000"/><stop offset="0.9" stop-color="#000000"/></linearGradient></defs><g fill="none" fill-rule="nonzero" stroke="none" stroke-width="1" stroke-linecap="butt" stroke-linejoin="miter" stroke-miterlimit="10" stroke-dasharray="" stroke-dashoffset="0" font-family="none" font-weight="none" font-size="none" text-anchor="none" style="mix-blend-mode: normal"><path d="M183.5,429.5v-200h400v200z" fill="url(#color-1)" stroke="none"/><path d="M383,329.5c0,-0.27614 0.22386,-0.5 0.5,-0.5c0.27614,0 0.5,0.22386 0.5,0.5c0,0.27614 -0.22386,0.5 -0.5,0.5c-0.27614,0 -0.5,-0.22386 -0.5,-0.5z" fill="#000000" stroke="none"/><path d="M246,276v1v0l1,6l1,12l3,13l3,20l2,7l1,11l1,8l1,4v5v3l1,3v3v1v1v1v1h1h4h4l5,1l7,1h7l6,1h6l6,1h6h5h4l4,-1h3l3,-1h2h2h1h1h1l1,-1h1h1h2h1h1h1v-1v-1v-2v-2v-4v-4v-4v-6v-4l-1,-7v-5v-5v-5l-1,-4v-5v-2v-3l-1,-4v-2v-2v-1v-2v-2v-1v-2l-1,-2v-1v-2v-2v-1l-1,-3v-2v-1v-1v-1v-1v-2h-1h-1h-1h-2l-3,-1l-3,-1h-4l-3,-1l-4,-1h-4h-4h-4h-3h-5h-3h-2h-4h-2h-3h-3h-3h-2h-2h-2h-3h-3l-1,1h-2h-1h-1h-1h-1h-1h-1h-1h-1h-1h-1h-1h-1h-1v1h-1h-1h-1h-1h-1" fill="#ffffff" stroke="#000000"/><path d="M413,146v3v0l2,10l3,19l5,27l4,37l4,41l5,42l1,29l5,39l3,20l2,17l2,13l2,13l1,10v9l2,11l1,7v8l1,4v2v1l1,1l1,-1l1,-1l4,-1l8,-3l10,-2l9,-2l10,-2l10,-2h6h6l4,-1h4h2h1v-1v-1v-2v-6l-1,-8l-2,-12l-4,-16l-3,-26l-4,-28l-4,-27l-2,-31l-3,-24l-4,-27l-1,-34v-26v-19v-16v-10v-8v-7v-7v-6l-1,-6v-5l-1,-3v-3l-1,-1v-1h-1h-1h-1h-2h-1h-3l-5,1h-3l-4,1h-4h-5h-4h-4h-5l-4,1h-5h-3h-3h-3h-3l-4,1h-2h-2l-3,2h-3h-1h-1l-1,1h-1h-1h-1v1h-1h-1v1h-1h-1h-1h-1h-1v1h-1v1v1h1h1v2l1,1" fill="#ffffff" stroke="#000000"/><path d="M54,43v2v0v13l2,26l3,39l1,36v33v18v14l1,11v4l1,3v2v1v1v1h1h1h3h7h11l13,1l10,1l8,1h9h7h3h7h5h2h2h1h1v-1v-1v-3v-4v-5v-9v-13l-1,-11v-9l-1,-9v-6l-1,-8l-1,-6v-10v-11v-8v-9l-1,-8v-6v-11l-1,-5v-6v-6v-3v-4v-4v-4v-3v-1v-1v-2v-1l-1,-1v-1v-1v-1v-3v-3v-2v-2v-2v-1h-1v-1v-1v-1h-1v-1v-1v-1v-1h-1v-1h-1h-1l-2,-1h-2l-4,-1h-3h-4h-10h-6h-7h-6h-5h-4l-3,1h-4l-2,1h-3h-3h-1l-3,1h-1h-1h-1h-1h-1h-1h-1h-1h-1h-1v1h-1h-1h-1h-1h-1h-1h-1" fill="#ffffff" stroke="#000000"/><path d="M111,125h-1v0h-1h-2h-3h-3h-3l-3,-1h-2h-3l-3,-1h-2h-2l-2,1l-2,2l-2,1l-1,1v1h-1v1l-1,1v1v1v1v1v3v2v5v2v2v1v1v1v1v1v1l1,1v1l1,1l1,1v1l1,2l1,1l1,1l1,1l1,2l1,1h1l1,1h1l1,1h1h2h2h1h1h1h2h1h1h1h1h1h1h1h1l1,-1h2l1,-2h2l1,-2l2,-1l2,-2l2,-1l2,-2l2,-1l1,-1l2,-1l1,-1h1l1,-1h1v-1v-1v-1v-1v-2v-1v-1v-1l-1,-1l-1,-1h-1v-3l-1,-2v-2l-1,-1v-1h-1l-1,-1v-1h-1v-1l-1,-1l-1,-1l-1,-1v-1h-1h-1h-1v-1h-1h-1v-2h-1h-1h-1v-1h-1h-1" fill="#ffffff" stroke="#000000"/></g></svg>