<svg version="1.1" xmlns="http://www.w3.org/2000/svg" xmlns:xlink="http://www.w3.org/1999/xlink" width="767" height="703"><g fill="#ff0000" fill-rule="nonzero" stroke="#000000" stroke-width="1" stroke-linecap="butt" stroke-linejoin="miter" stroke-miterlimit="10" stroke-dasharray="" stroke-dashoffset="0" font-family="none" font-weight="none" font-size="none" text-anchor="none" style="mix-blend-mode: normal"><path d="M182,150l1,5v0l5,14l5,19l6,21l3,17l2,10v6l1,6v1h1v1h1h2h9l20,-1h34h49h55h45l28,1h26l12,1h7h3h2h1v-1l-2,-4l-3,-7l-5,-16l-2,-15l-3,-10l-1,-10l-2,-6l-1,-2v-2v-2v-2l-1,-2v-5v-4v-4v-2v-1v-1v-1h-1v-1v-1l-1,-1v-1v-1v-1l-1,-1v-1h-1h-3l-7,-1l-12,-2l-15,-2l-15,-2l-15,-2l-15,-2l-14,-1h-12h-11h-15h-12h-13l-11,1l-13,1l-9,2l-9,1l-7,1l-8,1h-8l-6,1l-7,1h-5l-4,2h-5l-4,1h-4h-3h-5h-5h-4l-4,1h-3l-3,1h-2h-2h-2h-2h-1h-1h-1"/></g></svg>