<svg version="1.1" xmlns="http://www.w3.org/2000/svg" xmlns:xlink="http://www.w3.org/1999/xlink" width="767" height="659"><defs><linearGradient x1="233.5" y1="229.5" x2="583.5" y2="429.5" gradientUnits="userSpaceOnUse" id="color-1"><stop offset="0" stop-color="#ffff00"/><stop offset="0.15" stop-color="#ff0000"/><stop offset="0.3" stop-color="#ff0000"/><stop offset="0.9" stop-color="#000000"/></linearGradient></defs><g fill="none" fill-rule="nonzero" stroke="none" stroke-width="1" stroke-linecap="butt" stroke-linejoin="miter" stroke-miterlimit="10" stroke-dasharray="" stroke-dashoffset="0" font-family="none" font-weight="none" font-size="none" text-anchor="none" style="mix-blend-mode: normal"><path d="M183.5,429.5v-200h400v200z" fill="url(#color-1)" stroke="none"/><path d="M383,329.5c0,-0.27614 0.22386,-0.5 0.5,-0.5c0.27614,0 0.5,0.22386 0.5,0.5c0,0.27614 -0.22386,0.5 -0.5,0.5c-0.27614,0 -0.5,-0.22386 -0.5,-0.5z" fill="#000000" stroke="none"/><path d="M252,86l9,9v0l19,29l26,48l17,42l18,55l16,53l13,59l10,40l8,39l5,25l5,17l2,13l2,6l2,7v3l1,5l1,2v1v-1v-2v-6v-10l1,-22l6,-47l7,-51l13,-66l9,-45l6,-31l9,-32l3,-9l2,-11l2,-5l2,-6l1,-3l2,-9l3,-15l1,-7l2,-8l2,-6l1,-5v-2l1,-3v-5v-2l1,-2v-3l2,-6l11,-27l4,-11l3,-5l2,-6l1,-2l1,-1h1h1h-1h-1l-2,1l-4,3l-5,5l-9,8l-16,20l-6,7l-18,24l-11,14l-11,12l-8,7l-8,9l-20,15l-20,17l-12,11l-14,11l-13,11l-19,14l-9,7l-19,14l-12,8l-20,16l-18,15l-13,11l-13,10l-6,4l-4,3l-4,1l-3,2l-2,1l-4,4l-5,3l-4,3l-5,4l-4,2l-4,2h-3l-3,3h-2l-2,1l-3,1h-1v1h-1h-1v-1v-1h1l2,-1l7,-1l18,-3l23,-4l39,-8l27,-6l30,-7l34,-6l32,-3l33,-5l25,-3l24,-2l20,-4l17,-1l19,-2l20,-1l20,-1h18l13,-1l14,-1h10h11h6h8h8h5h4l2,1h1h1l-1,-1l-3,-1l-5,-2l-10,-4l-12,-3l-20,-6l-20,-8l-20,-9l-20,-7l-20,-10l-16,-6l-15,-7l-12,-5l-12,-5l-12,-5l-10,-5l-10,-4l-8,-6l-11,-4l-8,-4l-10,-5l-8,-4l-9,-7l-10,-6l-11,-7l-9,-6l-7,-6l-7,-6l-4,-3l-5,-5l-4,-3l-4,-7l-2,-3l-5,-2l-3,-3l-3,-1l-2,-2l-2,-3l-1,-1l-2,-1l-1,-2l-1,-1l-1,-1l-1,-1l-1,-1l-1,-1l-1,-1l-1,-2l-2,-2l-1,-1l-1,-1l-1,-1l-1,-2l-1,-1l-1,-1h-1l-1,-1" fill="#ffffff" stroke="#808080"/><path d="M382,233h-1v0h-2h-2h-2h-1h-1h-1h-1h-1h-1h-1v1v1v1v1v1v1v1l1,1l1,1v1h1v1h1h1v1h1h1h1h1h1h1h1h1h1h1h1v-1h1v-1v-1v-1v-1v-1h-1v-1h-1h-1v-1h-1v-1h-1v-1" fill="#ffffff" stroke="#808080"/><path d="M410,244h-2v0h-2h-3h-2h-2h-1h-1l-1,1h-1h-1l-1,2l-1,1v1v1h1v1h1h1l1,1h1h1v1h1l1,1h1v1h2h1v1h1h1h1h1h1h1v-1v-1v-1v-1v-1h2v-1v-1v-1v-1h-1v-1h-2v-1h-1" fill="#ffffff" stroke="#808080"/><path d="M359,255v1v0v1v1v2v1l1,2v1l1,1v1h1v3l1,1v1l1,1v1l1,1h1l1,2v2h1v1l1,1l1,1h1h1v1h1l1,1h1h1l1,1l1,1h2h1h1h2h2h2l2,1h3h1h1h1h1h1h1h1h1h1h1v-1h1v-1v-1v-1h-1h-1v-1h-1h-1l-1,-1h-1l-1,-1h-1h-1h-1h-1v-1h-1h-1h-1v-1h-1h-1v-1h-2l-1,-1l-1,-1v-1h-1h-1v-1h-1h-1l-1,-1h-1h-1v-1h-1v-1h-2h-1v-1h-1v-1h-1h-1h-1v-1v-1h-1h-1v-1h-1v-1h-1v-1v-1h-1v-1h-1h-1v-1h-1v-1v-1v-1v-1v-1v-1" fill="#ffffff" stroke="#808080"/><path d="M374,200h1v0l2,-1l2,-1l1,-2l2,-1l3,-1l1,-1h1l2,-2h1l1,-1l1,-1l2,-1l1,-1h2l1,-1l2,-1l2,-1l2,-2l3,-1l2,-1h1l2,-2l1,-2l1,-1v-1h1v2v1v1v1v1v1v1v1v1v2v1v1v2v1v1v1v2v2v1v2v1v1v1v1l1,-1v-1l2,-2l3,-2l3,-4l4,-5l7,-5l5,-4l3,-3l3,-2l2,-2h1v1v1v2l-2,2l-1,2l-1,3l-1,2l-1,3v3l-1,3l-1,3l-2,3v2l-1,2v1l-1,1v1v1v1v1v-1v-1l1,-1l1,-2l1,-1l1,-1l1,-1l1,-3l1,-1l1,-2l2,-1l1,-1l1,-1v-1l1,-1l1,-1l1,-1l1,-1v-1h1v-1h1v-1h1v-1l1,-1h1v-1v1v1v1v1v1v1l-1,1v1v1v1v1l-2,1v1v1l-1,1v1v1l-1,1v1v1v1v1v1l-1,1v1v1v1l-1,2v2v2v1v2l-1,1v1v1v2v1v1v1v1h-1v2v1l-1,1v1v1" fill="#ffffff" stroke="#808080"/><path d="M604,117" fill="#ffffff" stroke="#808080"/></g></svg>