<?xml version="1.0" encoding="utf-8"?>
<!-- Generator: Adobe Illustrator 21.1.0, SVG Export Plug-In . SVG Version: 6.00 Build 0)  -->
<svg version="1.1" id="Layer_1" xmlns="http://www.w3.org/2000/svg" xmlns:xlink="http://www.w3.org/1999/xlink" x="0px" y="0px"
	 viewBox="0 0 450 650" style="enable-background:new 0 0 450 650;" xml:space="preserve">
<style type="text/css">
	.st0{fill:#FFFFFF;}
</style>
<g>
	<path class="st0" d="M67.5,650.5c-3.7,0-7.5,0-11.2,0c-1.1-1.6-2.3-3.3-3.4-4.9c-8.8-13.3-12.2-28.2-11.7-44.3c0.1-1.4,0-2.9,0-4.3
		c-0.2,0-0.5,0-0.7,0c-0.3,2.8-0.6,5.7-0.9,8.5c-0.2,0-0.5-0.1-0.7-0.1c0.7-6.5,1.5-12.9,2.2-19.4c-0.2,0-0.4-0.1-0.6-0.1
		c-0.9,4.6-1.7,9.2-2.6,13.9c-0.2-0.8-0.5-1.5-0.5-2.2c-0.1-9.1-0.8-18.3-0.1-27.3c0.7-9.4,2.8-18.6,4.2-27.9
		c1.1-7.3,3-14.2,6.2-20.8c2.1-4.2,4.3-8.4,6.1-12.7c1.4-3.3,2.2-6.9,3.2-10.4c-0.3-0.1-0.6-0.2-0.9-0.4c-1.2,2.8-2.2,5.6-3.6,8.3
		c-1.4,2.6-3.1,5.1-4.6,7.7c-0.3-0.1-0.6-0.3-0.9-0.4c5.8-10.1,6.7-21.2,5.8-32.5c-0.5,2.4-1,4.7-1,7.1c0.1,11.4-3.7,21.3-9.2,30.8
		c-6.2,10.6-11,21.8-13.5,34c-0.8,3.8-1.2,7.6-1.8,11.7c-0.2-0.5-0.4-0.7-0.4-0.9c-0.2-0.6-0.3-1.2-0.4-1.9c-5.3-24.2,0.3-47,9.2-69
		c4.6-11.4,12.3-20.8,21.3-28.8c10.7-9.6,18.3-21.5,23.1-35.4c0.2-0.6,0.3-1.2,0.5-1.8c-1.5,1.9-2.5,3.9-3.4,5.9
		c-5.5,12-12.6,22.6-22.2,31.4c-3.8,3.5-7.5,7.3-10.6,11.6c-3.9,5.4-7.1,11.3-10.3,17.2c-2.7,5-6.6,8.8-10.3,12.8
		c-2.9,3.1-5.4,6.4-6.5,10.7c-0.4,1.8-0.6,3.6-0.9,5.4c-0.2-4.3-0.7-8.7-0.1-12.9c1.8-12.9,8.5-23,17.3-31.7
		c4.4-4.4,8.5-8.8,9.5-15.7c-2.5,2.1-4.9,4.1-7.3,6.1c-0.3-0.2-0.5-0.5-0.8-0.7c2.2-3.8,4.1-7.8,6.7-11.4c4.4-6,10.6-9.6,17.2-12.6
		c6.8-3,11-8.6,12-16.5c0.4-3.1,0.4-6.3,0.8-9.5c0.2-1.5,0.7-3,1-4.4c-0.3-0.2-0.6-0.3-0.9-0.5c-2.9,5.4-6.1,10.5-8.7,17
		c-0.4-1.5-0.7-2.3-0.7-3.1c-0.8-9.3,0.2-18.1,6.7-25.2c0.6-0.7,1-1.6,1.8-2.9c-4.6,0.7-8.4,1.2-12.9,1.9c1.1-1.3,1.8-2.3,2.6-3
		c1.1-1,1-1.6-0.2-2.3c-1.7-1.1-2.8-0.2-4,1c-1.7,1.7-3.4,3.1-6,1.9c-2.2-1.1-3.6-0.5-5,1.7c-0.6,0.9-1.1,2-1.9,2.7
		c-4.9,4.1-8.1,9.5-10.9,15.2c-1.7,3.5-3.5,7-5.3,10.5c-0.2-0.1-0.3-0.1-0.5-0.2c1.1-3.9,2-7.8,3.3-11.5c5-14.2,13.6-25.6,24.9-34.8
		c8.4-6.9,16.1-14.4,22.6-23.4c4.3-5.9,7.8-12.1,9.2-19.6c0.5,1,0.9,1.9,1,2.9c0.6,7,1,14.1,1.6,21.1c0.2,3,0.7,6,1.1,8.9
		c0.4,0,0.7-0.1,1.1-0.1c0-3.6,0-7.3,0-10.9c0.2,0,0.4,0,0.7,0c0.1,6,1.3,11.6,3.6,17c4.4,10.2,4.9,21,3.5,31.9
		c-0.1,0.6,0.1,1.2,0.1,1.8c0.3,0,0.7,0.1,1,0.1c0.8-4.3,2.3-8.7,2.4-13c0.1-6.5-0.9-13.1-1.3-19.7c-0.2-2.3,0-4.7,0-7
		c0.3,0,0.5,0,0.8,0c0.1,0.4,0.3,0.7,0.4,1.1c1.6,4.7,4.1,8.3,9.2,9.4c1.4,0.3,2.6,1.8,3.9,2.7c0.4,0.3,0.8,0.7,1.4,1.3
		c-0.7-5.5-0.7-5.7-4.9-8.8c-2-1.5-3-3.3-2.8-5.8c0.1-1.5,0.3-3,0.7-4.4c1.1-3.2,2.5-6.2,3.5-9.4c2.2-6.8,3.9-13.8,6.3-20.6
		c2.7-7.6,3.8-15.6,5.6-23.5c1-4.5,2.1-9.1,3.6-13.4c1.1-3.1,2.6-6.3,4.7-8.5c6.9-7.3,8.9-16.6,9.7-26.2c0.6-6.4,0.1-13,0.2-19.5
		c0-4.1,0.9-7.9,2.8-11.6c2.9-5.5,1.9-9.2-3-12.6c-0.4-0.3-0.8-0.6-1-1c-1.3-3.6-3.9-6.7-4.1-10.9c-0.1-2-1.1-4.1-2.2-5.8
		c-1.8-2.6-3.9-5.1-6-7.4c-2.8-3.1-5.9-5.8-10.2-5.7c-6.1,0.1-11.7,2.2-16.8,5.8c-2.9,2-5.2,4.7-8.9,5.5c-5.1,1.1-6,3.2-4.5,8.5
		c0.2,0.6,0.4,1.2,0.5,1.7c-1.1,0.8-2.1,1.5-3.1,2.3c-1.2,1-2.2,2.3-3.5,3.1c-1.6,1-2.4,2.3-2,4.1c0.5,2.1,1.4,4.2,2.2,6.4
		c0.1-0.1-0.1,0.1-0.3,0.2c-5,2.4-5.7,6.5-1.7,10.5c0.3,0.3,0.5,0.9,0.6,1.4c0.9,4.5,1.7,9,2.6,13.5c1.3,6.3,2.9,12.6,3.7,19
		c0.9,7.3,0.6,14.8,1.8,22c1.6,10.1,3.8,20,6.2,29.9c1.1,4.8,3.1,9.5,6.4,13.2c1.7,1.9,3.6,3.2,6.2,2.5c0.5-0.1,1.1-0.5,1.4-1
		c0.8-1.8,1.8-3.5,2.2-5.4c2.3-9.9,4.5-19.9,6.6-29.8c1.3-6.3,2.6-12.4,7.6-16.8c0.4-0.3,0.6-0.9,1-1.3c5.2-7.1,6.8-15.6,7.9-24.2
		c0.9-6.9,1.7-13.8,3.7-20.5c0.6-2.1,1.8-3.3,3.5-3.7c-0.2,5.9-0.8,11.8-0.5,17.7c0.3,6,0,11.9-1.5,17.7c-1.5,5.6-2.6,11.3-6.6,15.7
		c-6.5,7.1-9.1,16.2-11.1,25.5c-1.2,5.8-1.6,11.9-3.6,17.4c-3.5,9.4-5.2,19.4-9,28.7c-1,2.4-1.5,5-2.1,7.5c-1.2,5.2-0.8,8.2,4.1,11
		c0.7,0.4,1.4,0.9,2,1.6c0.5,0.6,0.9,1.4,1.5,2.4c-1.9-0.9-3.4-1.8-4.9-2.2c-2.6-0.7-4.5-2.2-5.7-4.7c-1.9-3.8-3.4-7.8-1.8-12.3
		c0.1-0.3,0.1-0.8,0.1-1.2c-0.2-0.1-0.4-0.1-0.5-0.2c-0.4,1-0.9,2.1-1.3,3.1c-2.3,6.8-2.1,13.7-0.9,20.7c0.2,0.9,0.2,1.7,0.3,2.6
		c0,0.8,0,1.6,0,2.4c-1-3.7-1.6-7.6-3.1-11c-4.6-10.5-6-21.5-5.2-32.9c0.3-4-0.3-8.1-0.5-12.1c0-0.6-0.3-1.2-0.5-1.7
		c-0.4,7.2,0.5,14.3-1.4,21.3c-0.2-1.2-0.1-2.4-0.3-3.6c-0.7-4.6-0.7-9.6-2.4-13.7c-2.7-6.5-3.1-12.9-2.4-19.7
		c0.6-5.4,1.2-11,0.8-16.4c-0.6-8-2.1-15.8-3.4-23.7c-0.5-2.9-1.1-6-2.3-8.6c-1.6-3.4-2.6-6.9-2.6-10.7c0-0.9,0-1.8,0-2.7
		c-0.3-0.1-0.6-0.3-0.9-0.4c0,5.3-5.2,5.5-7,9.1c0.3-1.2,0.7-2.4,1.3-3.4c3.1-5.6,4.6-11.6,4.5-18.2c-0.1-3.9,0.2-7.8,0.4-11.6
		c0.1-1.6,0.5-3.1,0.7-4.7c-0.1,0-0.3-0.1-0.4-0.1c-0.3,0.8-0.7,1.6-1.1,2.6c-2.4-14.1,1.2-23.2,12.2-27.8c-1.1,1.6-2.2,3.2-3.4,4.8
		c0.9-0.1,1.6-0.5,2.1-1c3.5-3.5,6.7-7.3,8.6-12c2-4.8,5.4-8,9.2-11.2c3-2.4,6-1.1,9.1-1.5c-3.7,3-6.7,6.4-8.5,10.9
		c0.7-0.5,1.2-1.1,1.8-1.7c1.9-2.2,3.8-4.4,5.9-6.5c2-2,4.4-2.4,6.8-0.9c2.2,1.4,4.4,3.1,6.4,4.8c1.5,1.3,2.9,2.8,4.6,4.6
		c-0.2-0.9-0.3-1.3-0.4-1.7c5.7,7.4,8.6,16.6,14.6,23.8c0.1-0.8,0-1.6-0.3-2.2c-3.7-6.7-7.3-13.5-11.2-20.1c-1-1.7-2.8-3-4.4-4.3
		c-0.8-0.7-1.9-1.1-2.8-1.8c-3.1-2.4-5.9-5.1-10.1-5.2c-1.7-0.1-4-0.3-5-1.5c-1.9-2.2-3.3-5.1-4.4-7.9c-2-4.9-2.6-10.2-2.5-15.6
		c0.1-6.9,2.8-12.4,8.2-16.3c1.8-1.3,3.8-2.5,5.7-3.7c5-3.3,10.1-6.5,14.9-10.1c4.2-3.1,6.7-7.5,7.6-13c1.4-7.9,3.7-15.5,7.9-22.3
		c4.9-8.1,9.9-16.1,16.7-22.6c5.5-5.2,13.6-8,21.4-3.4c1.4,0.8,2.9,1.6,4.4,2.4c4.7,2.6,9.5,4.6,14.8,5.4c4.6,0.7,9.1,2,13.6,3.2
		c3.8,1,6.9,3.1,9,6.6c1.9,3.3,3.6,6.7,5.3,10.2c2.9,6.1,5.4,12.6,8.6,18.5c3.9,7,9.6,12.6,15.5,17.7c9.6,8.3,11.7,21.9,6.6,32.4
		c-3,6.2-5.1,13-7,19.8c-1.5,5.4-3.3,10.9-1.6,16.7c0.3,1.1,0.7,2.1,1.2,3.8c0.5-1.2,0.7-1.8,0.9-2.4c2.5,2.9,3.8,6.8,2.4,8.6
		c3.5-1.4,6.5-2.5,9.4-3.9c8.6-4.2,19.4,1.4,23.2,7.5c2.5,4,4.1,8.6,5.8,13.1c2.3,5.7,5.1,11.1,9.5,15.4c2.1,2,4.1,4.1,4.3,7.2
		c-3.3,1.6-6.5,3.2-9.6,4.7c0.9,0.2,1.7,0,2.5-0.2c3-1,5.9-2.1,8.9-3c2.2-0.7,3.4-0.3,3.9,0.9c-3.6,2.4-7.1,4.8-10.7,7.2
		c0.1,0.2,0.3,0.4,0.4,0.7c1.6-1,3.1-2.1,4.8-3c4.7-2.8,9.5-5.5,15.2-4.9c1.1,0.1,2.2,0.8,3.3,1.2c0,0.3-0.1,0.5-0.1,0.8
		c-7.9,2.9-13.8,8.8-19.5,14.9c-5.8,6.1-10.6,13-15,20.2c0.9-0.6,1.6-1.3,2.3-2.1c5.5-6.6,10.8-13.4,16.5-19.8
		c9-10.2,19.8-15.3,33.4-13.4c8,1.1,15.8-0.8,23.1-4.5c3.5-1.8,6.8-3.8,10.4-5.7c0.2,0.2,0.6,0.5,0.9,0.8c2.8,2.6,2.8,2.6,1.2,6.1
		c-3.4,7.3-6.8,14.7-10.2,22c-7.7,16.6-15.1,33.3-23.2,49.7c-11.6,23.4-23.8,46.6-35.7,69.9c-0.3,0.6-0.8,1.2-1,1.5
		c-3.1-3.6-6.1-7.2-9.2-10.6c-4.7-5.3-8.7-10.9-9.1-18.6c0-0.9-0.3-1.8-0.6-3c-2.2,1.3-0.6,2.9-0.6,4.1c0,1.5,0.3,3,0.5,4.7
		c-4.3-4.6-4.6-5.3-5-9.5c-0.2-1.7-0.3-3.5-0.7-5.2c-1-4.1-3.7-5.3-7.9-3.8c0.5,0.7,1,1.2,1.4,1.8c2,2.6,2.6,5.5,1.7,8.7
		c-0.7,2.3-1.6,4.5-2.5,7.1c-0.1-1.4-0.1-2.5-0.3-3.5c-0.8-3.9-1.3-8-2.7-11.7c-0.9-2.3-3-4-4.8-5.8c-1.2-1.2-2.4-0.7-2.7,1.2
		c-0.2,1.3-0.3,2.7-0.1,4c0.3,2.3,0.9,4.6,1.4,6.9c-0.2,0.1-0.3,0.2-0.5,0.3c-2.7-4-5.5-8-8.6-12.6c0,2.1,0,3.6,0,5.4
		c-3.7-7-7.1-13.6-10.6-20.3c-0.2,0.1-0.5,0.3-0.7,0.4c0.5,1.1,1.1,2.2,1.6,3.3c5.4,11.7,11,23.2,16.3,35
		c7.4,16.6,18.4,30.7,28.4,45.6c0.8,1.2,0.8,2,0.2,3.1c-2.4,4.2-4.6,8.5-7.1,12.7c-17.1,28.3-34,56.8-51.4,84.9
		c-8.3,13.5-17.1,26.6-26.1,39.6c-6.5,9.4-13.5,18.5-20.1,27.7c-6.5,9-12.8,18.2-19.4,27.1c-9.3,12.5-18.8,24.7-28.2,37
		c-1.5,2-3,4.1-4.5,6.2c-24.5,0-48.9,0-73.4,0c-0.1-0.6-0.3-1.2-0.4-1.8c-1.8-6.9-4-13.6-5.4-20.6c-2.3-11.9-2.2-24.1-1.6-36.2
		c0.1-1.2-0.2-2.4-0.3-3.7c-0.6,1-0.8,2-0.8,3c-0.2,7.7-0.8,15.4-0.4,23c0.4,6.8,1.6,13.5,2.9,20.1C64.1,639.8,66,645.1,67.5,650.5z
		 M97.4,366.4L97.4,366.4c0.2,0.8,0.5,1.6,0.8,2.4c0.1-0.1,0.3-0.1,0.4-0.2c0.2-2.4,0.3-4.8,0.5-7.5c-0.5-0.7-1.4-1.8-2.3-2.9
		C95,361.4,95.3,364.7,97.4,366.4z M188.6,112.7c-3.9-0.5-6.3,1.1-7.2,4.7c-0.6,2.4-0.8,4.8-1.4,7.2c-1.2,5.5-3.7,10.4-8.5,12.8
		c-4.8,2.4-10.1,4.3-15.3,5.2c-6.2,1.1-11.2,3.4-14.2,9.4c-1.5,3-3.2,6-4.1,9.2c-0.8,2.6-1,5.6-0.8,8.4c0.7,6.4,4.1,11.3,8.8,15.2
		c3.9,3.3,6.3,7.6,7.1,12.7c0.5,2.9,0,6,0.1,9c0.2,5.3,0,10.9,3.2,15.3c1.7,2.3,2.7,4.4,2.7,7.3c0,1.8,0.9,3.6,0.7,5.3
		c-1,7.5,0.6,14.4,4,20.8c4.1,7.9,12.4,10.4,20,8.7c8.2-1.8,15.7-5.5,22.4-11c2.1-1.7,4.6-1.9,7.1-1.4c8,1.6,14.9-1.1,21.2-6.2
		c1.2-1,2.2-2.8,2.5-4.3c0.3-1.4-0.1-3.7-1-4.5c-3.9-3.1-8-6-12.2-8.6c-1.6-1-2.6-2.2-2.9-3.9c-0.4-2.3-0.7-4.7-0.5-7.1
		c1-10.2,5.4-18.7,11.5-26.4c3.4-4.3,7-8.5,9.1-13.8c4.1-10.3,3-20-2.7-29.2c-1.5-2.5-3.7-3.5-6.6-3.1c-1.7,0.2-3.4,0.1-5.2,0.2
		c-2.4,0-4-1.2-5-3.4c-0.6-1.4-1.2-2.9-1.9-4.3c-1.2-2.5-2.7-3.1-4.9-1.5c-1.7,1.2-3.2,2.8-4.6,4.4c-2.2,2.4-4.6,4-7.9,3.2
		c-3.3-0.9-4.6-3.5-5-6.8c-0.2-1.6-0.2-3.3-0.2-5c0-1.4,0.2-2.8,0.3-4.3c0.4-5.7-1.4-10.3-5.9-13.8c-3.7-2.8-6.4-6.7-8-11.2
		c-1.3-3.8-2.4-7.8-3.4-11.5C178.7,95.8,182,104.1,188.6,112.7z M68.6,506.4c-2.8-1.5-6.2,0.5-6.8,3.9c-1,4.8-2.5,9.5-6.1,12.7
		c-3.9,3.4-6.1,7.5-6.2,12.8c0,1.5-0.2,3-0.5,4.5c-0.8,4-0.4,8.5-3.8,11.6c-0.4,0.4-0.5,1.1-0.7,1.7c-2.3,7.4-0.4,14,3.2,20.3
		c0.8,1.4,1.6,1.1,2.4-0.1c1.6-2.3,0.6-4.6,0-6.8c-1.4-5-0.1-9.3,2.5-13.5c2.3-3.7,3.9-7.7,2.8-12.3c-0.3-1.4-0.6-3-0.4-4.5
		c0.3-1.8,1.1-3.5,1.6-5.3c1.4,0.8,2.8,1.4,4.1,2.4c1.5,1.1,2.7,1,3.4-0.7c0.9-2.2,1.1-4.4,0-6.6c-0.6-1.2-0.9-2.5-1.1-3.8
		c-0.1-0.6,0.5-1.4,1-1.8c0.3-0.2,1.3,0,1.6,0.4c1.1,1.4,1.9,3,2.9,4.5c2.2,3.3,6.4,3.2,8.2-0.3c0.3-0.5-0.1-1.9-0.6-2.3
		c-1.2-0.9-2.6-1.5-4-2.1c-2.8-1.3-3.8-5.4-1.7-7.7c1.1-1.3,1.5-2.8,0.5-4.1c-0.8-1-2.2-1.6-3.3-2.3c-0.1,0.2-0.2,0.3-0.4,0.5
		c0.5,0.5,1,1.2,1.6,1.5c1.9,1.1,2,2.1,0.5,3.8c-2.5,2.8-1.4,7.8,2.1,9.1c1.7,0.6,3.3,1.4,4.5,2c-0.6,0.9-1,1.8-1.7,2.6
		c-1.2,1.4-2.5,1.3-3.7-0.1c-0.7-0.9-1.2-2-1.9-2.9c-0.8-1.2-1.5-2.5-2.5-3.3c-0.7-0.5-2.2-0.6-3-0.2c-0.8,0.4-1.8,1.7-1.8,2.5
		c0,1.4,0.6,2.9,1.2,4.3c1.2,2.3,0.9,4.4-0.3,6.6c-1-0.8-1.9-1.7-2.9-2.3c-2.7-1.7-4.6-1.1-5.2,2.1c-0.5,2.4-0.8,5.1-0.3,7.5
		c0.9,4.3,0.1,8-2.1,11.5c-3.4,5.3-4.6,10.9-2.5,17.1c0.4,1,0.1,2.3,0.2,3.5c-0.2,0-0.5,0.1-0.7,0.1c-0.6-1.2-1.2-2.3-1.7-3.5
		c-3.1-6.7-3.5-13.3,1.2-19.5c0.6-0.8,0.9-2,1.1-3.1c0.7-4.6,1.3-9.2,1.9-13.9c0.4-2.7,1.1-5.1,3.3-7c4.7-4,7.5-9.3,8.4-15.7
		C63.4,507.6,65.9,506,68.6,506.4z M245.4,316.2c-0.1-0.1-0.3-0.2-0.4-0.3c-2.8,4.2-5.5,8.5-8.5,12.7c-4.9,6.9-10.5,13-17.4,17.7
		c-7.3,5-14.9,5.6-23,2.4c-9.9-3.9-18.4-10.4-26.3-17.5c-9.2-8.3-17.6-17.5-24.4-28.1c-1.7-2.7-3.6-5.3-5.4-8
		c0.5,1.8,1.1,3.6,2.1,5.1c6.6,10.1,13.9,19.5,22.5,27.7c9.2,8.8,19,16.8,30.6,21.7c8.7,3.7,17.1,2.8,25.1-2.5
		c6.1-4.1,11.1-9.5,15.5-15.4C239.4,327,242.2,321.5,245.4,316.2z M132.6,337.9c-0.2,0.1-0.3,0.2-0.5,0.4c0.2,0.4,0.5,0.7,0.7,1.1
		c7.5,10.9,14.5,22.1,19.8,34.4c4.4,10.2,8.8,20.5,13.4,30.6c4,9,8.6,17.6,16,24.1c4,3.4,8.4,6,13.5,6.6c10.1,1.2,19.5-1.3,27.8-7.6
		c0.7-0.5,1.4-1.2,1.5-1.4c-3.7,1.9-7.7,4.3-12,6c-5.8,2.3-12,3.1-18.1,1.8c-8.5-1.9-14.5-7.7-19.4-15.1
		c-6.5-10-10.9-21.1-15.6-32.1c-6-14-12.2-27.9-21-40.3C136.7,343.6,134.7,340.7,132.6,337.9z M247.1,266.3
		c-0.1-0.1-0.2-0.3-0.4-0.4c-0.6,0.6-1.2,1.1-1.8,1.7c-8.6,8.6-13.4,19.5-16.7,31.3c-2,7-2.4,14.5-6.1,21c3-3.6,4.5-7.9,5.5-12.4
		c2.8-13,7.2-25.1,15.2-35.6C244.3,270,245.7,268.1,247.1,266.3z M279.8,265.2c0.1-0.4,0.3-0.8,0.4-1.3c2-9.7,4.1-19.3,6.1-29
		c1.6-7.7,3.6-15.3,2.7-23.2c-0.1-1-0.3-2.1-0.5-3.1C288.3,228,281.4,246.2,279.8,265.2z M195,311.2c0,0.1,0,0.3,0,0.4
		c2.1-0.2,4.1-0.2,6.2-0.5c5.6-0.9,9.5-4.8,13.4-8.7c5-5,7.6-11.7,10.9-17.9c1.8-3.3,3.1-6.8,4.7-10.2c-4.3,7-8,14.3-12.2,21.4
		c-4.1,6.8-9.5,12.2-17.1,14.5C199,310.7,196.9,310.9,195,311.2z M73.5,547.5c-1.1-1.9-2-3.5-2.9-5c-1.2-1.9-1.3-3.7,0.2-5.4
		c0.8-0.9,0.8-1.7-0.2-2.6c-0.7-0.7-1.2-1.8-1.9-2.9c-0.3,0.2-1.4,0.7-2,1.5c-1,1.4-1.8,3.1-2.6,4.7c-0.9,1.7-0.7,3.1,0.7,4.4
		c1,0.9,2.4,1.7,2.9,2.9C68.8,548,71,547.5,73.5,547.5z M263.3,231.1c9.1-6.1,16-14.5,22.4-23.9c0.6,1,0.8,1.5,1.1,2
		c0.2-0.1,0.4-0.1,0.6-0.2c-0.2-0.7-0.2-1.7-0.7-2c-0.4-0.3-1.5-0.1-2,0.3c-0.9,0.7-1.6,1.6-2.4,2.5c-3.8,4.6-7.5,9.3-11.4,13.7
		C268.6,226.2,265.9,228.5,263.3,231.1z M151.1,278.1c1.4,9.2,16.3,27.5,23.5,29.2C164.7,299.5,156.2,290.4,151.1,278.1z M36.9,519
		c0.3-1.5,0.4-2.5,0.7-3.4c0.6-2.5,1.3-5,2-7.4c0.7-2.3,1.6-4.6,2.3-6.9c-0.2-0.1-0.5-0.3-0.7-0.4c-1.3,0.8-2.7,1.5-3.8,2.1
		c-0.4,1.9-0.6,3.7-1.2,5.4c-0.7,1.9-1.7,3.6-2.5,5.5c-0.2,0.5,0,1.4,0.3,1.9C34.8,516.8,35.7,517.6,36.9,519z M171.7,124
		c-1-6.3-5.5-10.5-11.4-11.7c-5.7-1.1-13.5,5.1-16.5,12.3c0.6-0.5,1.1-1.1,1.6-1.7c2.4-2.5,4.6-5.2,7.2-7.4c3.4-2.9,7.3-2.9,11.2-1
		C167.8,116.4,170.4,119.7,171.7,124z M61.3,553.2c-3.9,3.9-4.3,7.5-2.4,10.5c1.5,2.3,2.8,0.8,4,0.2c1.3-0.7,1.3-1.8,0.5-3.4
		C62.3,558.4,60,556.8,61.3,553.2z M51.6,392.4c0.1,0.2,0.3,0.5,0.4,0.7c0.7-0.1,1.3-0.2,2-0.4c2.2-0.6,4.4-1.1,6.5-1.9
		c0.5-0.2,0.8-1.8,0.6-2.6c-0.2-0.8-1.1-1.4-1.7-2.1c-0.6,0.6-1.2,1.2-1.8,1.7c-0.9,0.8-1.8,1.7-2.7,2.4
		C53.9,391.1,52.7,391.7,51.6,392.4z M22.6,502c1.9,2,2,1.9,3.8-1.1c0.8-1.3,2.2-2.2,3.2-3.3c0.4-0.4,0.9-1.1,0.8-1.4
		c-0.3-0.7-0.9-1.4-1.5-1.9c-0.1-0.1-1,0.5-1.3,0.9C25.9,497.4,24.3,499.6,22.6,502z M42.8,397.9c4.1,0.3,5.2-3.1,6.8-5.8
		C47.3,391,43.6,394.1,42.8,397.9z M254.8,367.5c2.2-6.4,3.4-12.4,2.6-18.8C256.6,354.8,255.7,360.8,254.8,367.5z M89.9,329.2
		c0-0.4,0.1-0.9-0.1-1.2c-0.3-0.7-0.8-1.3-1.2-1.9c-0.5,0.7-1.2,1.3-1.4,2.1c-0.2,0.9,0.1,1.9,0.4,2.8c0.1,0.4,0.7,0.9,1.1,0.9
		c0.3,0,0.8-0.6,1-1C89.8,330.4,89.8,329.8,89.9,329.2z M31.5,489.7c1.1-1,1.9-1.7,2.5-2.5c0.4-0.4,0.7-1.1,0.7-1.6
		c0-0.3-0.8-0.8-1.1-0.8c-0.6,0.1-1.4,0.5-1.6,0.9C31.6,486.9,31.6,488.1,31.5,489.7z M32.4,527.7c-0.3,0-0.6,0-0.9,0
		c-0.1-0.7-0.2-1.5-0.3-2.2c-0.1,0-0.2,0-0.2,0c0.1,1.4,0.2,2.8,0.4,4.3c3.3-5.6,3.3-5.6,1.7-6.7C32.9,524.4,32.7,526.1,32.4,527.7z
		 M129.7,140.7c3.2-1.4,5.4-3.3,7.2-6.6C134.3,136.4,132.2,138.4,129.7,140.7z M254.2,206.2c-0.2-0.1-0.4-0.3-0.6-0.4
		c-1,1.8-2.1,3.6-3.1,5.4c0.2,0.1,0.4,0.2,0.6,0.4C252.1,209.8,253.2,208,254.2,206.2z"/>
	<path class="st0" d="M54.9,650.5c-18.1,0-36.3,0-54.4,0c0-216.7,0-433.3,0-650c56.5,0,113.1,0,169.7,0c-0.5,0.3-1,0.7-1.5,0.9
		C155,7.8,142,15.2,129.5,23.7c-13.3,9.1-26.6,18.4-38.2,30c-4.4,4.4-8.9,8.8-11.4,14.8c-0.1,0.2,0,0.4,0,0.8C80.5,69.2,81,69,81,69
		c0.3-1.1,0.3-1.9,0.7-2.4c1.8-2.5,3.6-5,5.7-7.3c9.4-10.6,20.6-18.8,31.9-27c12.9-9.3,26.1-18.1,40.2-25c4.5-2.2,8.9-4.5,13.3-6.8
		c57.9,0,115.8,0,173.7,0c1,0.3,2,0.7,3,1c6.2,1.6,12.6,2.8,18.7,4.9c9.6,3.3,19.1,7,28.5,10.9c13.3,5.4,26,12.3,38.2,20.1
		c5.2,3.3,10.4,6.8,15.6,10.3c0,31.3,0,62.5,0,93.8c-0.5,0.5-1.1,0.9-1.4,1.5c-2,5.5-4,11.1-5.8,16.7c-1.2,3.6-1.9,7.5-3.2,11.1
		c-0.9,2.5-2.2,2.7-4.1,1.1c-1.9-1.6-3.8-2-5.7-0.4c-1.6,1.3-2.9,2.8-4.3,4.3c-0.7,0.8-1.2,1.9-2,3.1c-1.2-1.3-2.3-2.3-3.1-3.5
		c-1.8-2.8-3.7-5.6-5.2-8.6c-3.4-6.7-8.1-11.7-15-14.2c-5.3-2-6.2-4-5.5-9.9c0.1-0.7,0.2-1.4,0.4-2.1c1.6-6.9,1.8-13.8,1.4-20.8
		c-0.2-2.5-1-4.5-2.4-6.5c-1.9-2.5-4.1-3.7-7.1-4.3c-4.6-1-9-3-13.5-4.3c-3.7-1.1-4.2-1.6-4.6-5.6c-0.2-2-0.2-4-0.3-5.9
		c-0.2-3.3-0.2-6.7-0.7-10c-0.8-5.8-4.7-8.7-10.2-7.8c-3.4,0.6-6.6,0.4-9.6-2c-1.5-1.2-3.4-2.2-5.2-2.7c-7.5-1.9-15-3.8-22.6-5.1
		c-3.1-0.5-6.6-0.2-9.7,0.8c-4.7,1.6-7,5.9-8.2,10.2C270.2,57,234.7,48,198,44.8c-37.1-3.2-72.7,4.8-107.4,19.7
		c0.5,0.1,0.6,0.2,0.8,0.1c1.1-0.4,2.3-0.8,3.4-1.2c22.9-8.7,46.4-14.7,70.8-17c12.9-1.2,25.8-1.4,38.6,0.2c9.5,1.2,19,2.8,28.4,4.8
		c19,4.1,37.6,9.7,55.2,18.3c4.9,2.4,10.2,4.2,13.9,8.9c0.2,0.3,1.5,0.1,1.8-0.3c0.8-1.1,1.5-2.3,2.1-3.6c2.4-5.9,6.1-8.6,12.1-8.1
		c5.1,0.5,10.1,1.5,15.1,2.5c5.1,1.1,10.5,1.8,14.8,5.2c3.5,2.6,7,3,10.8,1.7c2.6-0.9,4.6,0,5.9,2c1.2,2,2.2,4.3,2.5,6.7
		c0.6,4.9,0.6,10,1,14.9c0.3,3.7,1.7,5.2,5,6c1.6,0.4,3.1,1.1,4.7,1.6c3.3,1.1,6.5,2.4,9.9,3.1c4.2,0.9,7.9,4.2,8.2,8.7
		c0.3,4.3,0.2,8.7-0.2,13c-0.3,3.7-1.3,7.3-1.7,11c-0.7,5.5,0.7,8.1,5.5,10.2c0.7,0.3,1.4,0.6,2.1,0.9c5,1.8,8.5,5.5,11.3,10
		c0.4,0.6,0.6,1.5,0.4,2.1c-1.5,5.3-3,10.6-4.6,15.9c-0.8,2.6-1.9,5.1-5.1,5.7c-0.9,0.2-1.9,1.5-2.5,2.5c-0.6,1.3-0.9,2.9-1.1,4.3
		c-0.3,2-1.4,3.2-3.3,4.2c-0.4-3.7-1-7.2-1-10.6c0-3.3-0.9-6.2-2.4-9c-1-1.8-3-1.8-3.9,0c-0.6,1.3-1,2.9-0.9,4.3
		c0.1,2.7-0.5,5.3-2,7.4c-3.2,4.3-2.8,9.6-3.4,14.6c-0.7,6.3,2.5,12.5,1.4,19c0,0.1,0.1,0.3,0.1,0.5c-0.3,1.2-0.2,2.6-0.9,3.4
		c-1.7,2.2-2.5,4.4-2.2,7.2c0.1,0.6-0.3,1.4-0.7,1.7c-1.5,1.3-3.1,2.6-4.8,3.5c-7,3.9-14.4,6.2-22.4,6.2c-5.5,0-10.9-0.1-16.4,0
		c-2.4,0-4.9,1.5-6.9-1.1c-0.2-0.3-0.8-0.4-1.3-0.3c-2.9,0.1-5.8,0.2-8.8,0.4c-0.6-0.4-1.5-1.3-2.5-1.6c-1.1-0.3-2.3-0.2-3.5-0.3
		c0.1-0.2,0.3-0.3,0.4-0.5c-1.2-2-2.4-4.1-3.8-6c-1.2-1.6-2.6-3-3.9-4.6c-4-5-6-11.1-8.2-17.1c-1.9-5.2-4.3-9.9-9-13
		c-7-4.6-14.1-6.4-21.9-2.4c-1.5,0.8-3,1.5-4.6,2.3c-0.4-0.9-0.7-1.7-1.1-2.4c-0.9-1.6-1.9-3.2-2.8-4.8c-0.6-1.1-1.5-2.1-1.7-3.3
		c-0.3-1.6-0.1-3.3,0-5c1.1-10.6,4.9-20.2,9.1-29.7c3.5-7.7,3-15.3-0.3-22.9c-2.2-5.1-6.3-8.4-10-12.1c-6.4-6.2-12.3-12.8-16-21.3
		c-2-4.5-3.7-9.2-5.6-13.7c-2.9-6.7-6.4-13.1-13.7-15.4c-3.1-1-6.3-1.6-9.4-2.3c-5.9-1.4-12-1.9-17.4-5.2c-2.5-1.5-5.2-2.8-7.8-4.1
		c-4.9-2.4-9.8-2.4-14.8-0.3C165,63,160.8,68,156.8,73.3c-8.8,11.6-16,24.1-18.2,39.2c-0.5,3.2-2,5.9-4.3,8.1
		c-4.8,4.7-10.4,8-16,11.4c-3.4,2.1-7,4.1-9.9,6.9c-7.1,6.8-8.4,21.3-3.2,31c1.3,2.5,2.5,5.1,3.8,7.6c-6.8,2-11.2,6.5-14.7,12.5
		c-1.4,2.5-3.1,4.9-5.1,6.8c-2.2,2.2-4.9,3.8-7.5,5.5c-3,2-5.2,4.6-6.5,8.2c-2.2,6.2-1.9,12.4-1.1,18.8c1.2,10.7,1.4,21.2-4.1,31
		c-0.8,1.4-1.2,3.1-1.3,4.7c-0.2,2.2,0.2,4.4,0.3,6.6c0.4,0.1,0.7,0.2,1.1,0.2c0.2-5.5,1.5-10.2,6.7-12.1c0.6,2.2,1.1,4.3,1.7,6.4
		c0.8,2.5,1.9,5,2.5,7.5c3.5,14.9,5.5,29.9,3,45.2c-0.8,5.1-0.8,10.3,1.6,15.1c0.3,0.6,0.3,1.4,0.2,2.1c-0.8,3.1-1.3,6.4-2.6,9.3
		c-5.6,12.3-14.6,21.7-24.3,30.5c-6.4,5.8-13.2,11.4-18.6,18.2c-9.8,12.1-14.4,26.7-16.3,42.4c-0.2,1.8-0.3,3.6-0.4,5.6
		c1.6-4.5,2.8-8.8,4.6-12.9c3.6-8.1,7.2-16.3,12.8-23.1c2.1-2.5,4.2-4.9,6.4-7.3c0.4-0.5,1.5-0.8,2-0.5c3.4,1.8,5.9,0.2,8.3-2.1
		c0.5-0.5,1.2-0.6,1.6-0.9c-0.9,2.1-1.8,3.9-2.5,5.8c-0.1,0.3,0,1,0.3,1.2c0.2,0.2,0.9,0.1,1.2-0.2c2.8-3.1,6.6-1.6,10-2.4
		c-3.6,5.1-7,10.2-7.3,16.8c-0.3,7.3,1.2,17.2,3,18c-0.1-6,2.7-10.8,6-16c0,1.8,0,2.9,0,4c-0.3,9.9-4.6,16.7-13.5,20.4
		c-10.3,4.2-17.8,11.7-21.9,22.6c-1.2,3.3-3.3,6.5-2.3,10.4c0.1,0.3-0.3,0.8-0.6,1.2c-1.6,1.9-3.3,3.6-4.9,5.6
		c-6.1,7.5-11,15.7-11.9,25.6c-0.6,6.3,0.3,12.8,0.5,19.2c0,0.6,0.3,1.1,0.5,1.7c0.1-13.1,6.7-22.3,16.3-30.1
		c-4.3,12.1-8.3,24-9,36.8c-0.7,12.8,1.3,25.1,4.2,38c0.2-1.3,0.5-2.1,0.5-2.8c1.5-15.8,5.1-30.9,12.5-44.8
		c2.6-4.9,5.6-9.2,9.9-12.7c-0.4,1.1-0.9,2.1-1.4,3.1c-4.3,8.3-7.6,16.9-8.7,26.3c-0.6,5.3-1.3,10.6-2.4,15.7
		c-3.3,15.9-3.3,31.8,0.2,47.7c0.2,0.9,0.3,2.4,0.7,2.6c1.9,0.7,1.3,2.3,1.4,3.6c0.7,8.7,2.8,17.1,6.7,24.8
		C49.1,641.8,52.1,646.1,54.9,650.5z M428.8,137.9c0,0-0.1,0-0.1,0c0-0.6,0-1.1,0-1.7c-0.5-4.3-3.9-7.2-7.3-6.4
		c-3.2,0.8-4.4,3.2-5.1,6.2c-0.7,3.3,0,6.1,2.5,8.3c3.9,3.6,8.2,2.2,9.6-3.1C428.7,140.1,428.7,139,428.8,137.9z M419.9,164.3
		c0.1-0.1,0.2-0.1,0.4-0.2c-0.1-0.5-0.2-1-0.4-1.5c-2.9-7.3-7.8-12.5-14.9-15.3c-2-0.8-4.3-1.1-5.2-3.8c0,1.1,0.3,2.1,0.9,2.7
		c0.7,0.7,1.6,1.1,2.5,1.4c6.4,2.3,11.1,6.7,14.4,12.9C418.3,161.9,419.1,163.1,419.9,164.3z"/>
	<path class="st0" d="M450.5,577.1c0,14.9,0,29.8,0,44.8c-4.8-4.6-9.9-9-14.3-14c-11.6-13.1-23-26.3-34.2-39.7
		c-5.8-6.9-13.1-10.4-21.3-12c-0.6-0.1-1.2,0-2.1,0.1c2.4,2.8,4.7,5.4,6.7,7.7c-1.7,0.1-3.6,0.3-5.5,0.4c0,0.3-0.1,0.5-0.1,0.8
		c0.4,0.6,0.8,1.3,1.4,1.8c6.2,6.1,12.1,12.5,18.7,18.2c9.2,7.9,17.3,16.6,22.3,28.1c3.9,8.9,7.7,17.9,11.6,26.8
		c1.5,3.5,3.3,6.9,4.9,10.4c-84.7,0-169.5,0-254.2,0c1-2,1.9-4.1,3.1-5.9c12-18.5,24.1-36.9,36.1-55.4c17.2-26.5,35.1-52.6,51.1-80
		c14.5-24.9,29.3-49.6,43.9-74.4c0.3-0.4,0.6-0.8,1-1.2c0.3,0.4,0.5,0.6,0.7,0.8c8.2,10,14.2,21.5,20.1,33.2
		c7.3,14.5,14.4,29.1,23.6,42.3c2.5,3.6,5.1,7,7.6,10.5c0.2-0.2,0.4-0.3,0.6-0.5c-0.6-1.1-1.2-2.3-1.9-3.3c-3-4.5-6.2-9-9.1-13.6
		c-8.9-13.8-15.6-28.9-23.2-43.4c-0.8-1.4-1.3-3-2-4.5c0.3,0.3,0.6,0.5,0.8,0.8c5.8,9,11.5,18,17.4,26.9c5.8,8.8,11.4,17.7,17.8,26
		c8.4,10.9,19,19,31.5,24.2c16.2,6.7,32,6.3,47.3-3c0,15.4,0,30.8,0,46.2c-7.9-1-15.3-3.6-22.4-7.3c-14.3-7.4-25.9-18.8-38.1-29.2
		c-2.8-2.3-5.3-5-7.9-7.5c-0.2,0.2-0.3,0.3-0.5,0.5c0.9,1,1.7,2.1,2.6,3c12.1,11.6,24.6,22.8,38.7,31.6
		C431.3,572.7,440.4,576.4,450.5,577.1z"/>
	<path class="st0" d="M450.5,143.3c0,128.6,0,257.1,0,385.7c-1.6,0.8-3.3,1.6-4.9,2.4c-12,6.1-24.4,6.5-37,2.4
		c-16.2-5.2-29-15.7-39.2-29.6c-6.4-8.7-12.1-18.1-18.2-27.1c-4.4-6.7-8.8-13.4-13.3-20c-0.6-0.9-1.5-1.6-2.3-2.4
		c-0.8-1.1-1.5-2.3-2.3-3.4c-4.2-6.1-8.5-12.1-12.6-18.2c-0.4-0.6-0.4-1.8-0.1-2.4c2.1-4,4.4-8,6.5-11.9c1-1.9,2.1-3.8,3.1-5.7
		c2.1,2.7,3.8,5.3,5.8,7.6c3.3,3.7,5.7,5,7.3,4.4c-1.1-1.5-2.4-2.9-3.3-4.5c-0.9-1.6-1.5-3.4-2.2-5.1c3,1.9,5.6,3.9,7.9,6.2
		c5.4,5.4,6.1,9.1,4.1,15.3c-3.5,11-0.8,21.1,4.6,30.6c0.4,0.8,1.2,1.3,1.8,2c0.1-0.1,0.3-0.2,0.4-0.3c-4.2-5.3-4.3-11-1.6-16.9
		c0.3-0.6,0.5-1.3,0.8-2c1.8-4.6,2.9-9.3,2.6-14.4c-0.1-1.7-0.4-3.4-0.6-5.1c2.2,4.2,2.4,8.8,2.1,13.4c-1.1,15,1.7,29.2,7.1,42.9
		c0.6,1.6,1.3,3.1,1.9,4.7c0.5-0.9,0.9-1.7,0.7-2.4c-0.8-4.8,1.3-8.8,3.2-12.9c2.5-5.4,3.7-11,3.6-17c0-1.5,0.4-3,0.7-4.5
		c0.2-1.4,0.7-2.9,0.6-4.2c-0.5-4.3,1.8-7.2,4.3-10.8c-2,11.6-0.9,22.5,1.5,33.4c0.5-1,0.9-1.9,1-3c0.2-1.3-0.1-2.7,0.2-4
		c1.4-6,2.8-12,4.5-17.9c1.8-6.1,4.7-12,5.9-18.2c1.8-9.7,2.5-19.6,3.7-29.4c0.2-1.8,0.2-3.7,0.6-5.4c1.6-6.2,3.1-12.4,4.9-18.5
		c2.4-8.1,5-16.1,7.5-24.2c0.4,0.6,0.3,1,0.4,1.5c0.1,0.4,0.4,0.8,0.6,1.2c0.3-0.3,0.7-0.6,0.8-0.9c2-6.4,3.1-12.9,2.2-19.6
		c-0.4-3.5-1-6.9-1.1-10.4c-0.1-7.8,0-15.6,5.1-22.1c1.6-2.1,2.5-4.8,2.5-7.5c-0.2-0.1-0.4-0.3-0.7-0.4c-1,1.4-2,2.7-2.6,3.6
		c1.7-6.4,4-13.2,5.3-20.1c2.2-11.1,2.4-22.5,2.4-33.9c0-4.1,0.8-8.2,0.7-12.3c-0.2-3.9,0.6-7.1,3.1-10c0.9-1.1,1.2-2.9,1.6-4.4
		c0.9-3.5,1.1-7.2,2.5-10.4c1.4-3.4,1.9-6.1-0.6-8.9c-1.7-1.9-1.8-4-0.9-6.3c1.9-5,3.6-10.1,5.4-15.1c0.4-1.1,0.6-2.4,1.3-3.2
		c2.6-2.9,3.5-6.4,4.1-10.1C445.5,156.3,447.2,149.6,450.5,143.3z"/>
	<path d="M450.5,143.3c-3.3,6.2-5,13-6.2,19.9c-0.6,3.7-1.6,7.2-4.1,10.1c-0.7,0.8-0.9,2.1-1.3,3.2c-1.8,5-3.5,10.1-5.4,15.1
		c-0.9,2.4-0.7,4.5,0.9,6.3c2.5,2.8,2.1,5.5,0.6,8.9c-1.4,3.2-1.7,7-2.5,10.4c-0.4,1.5-0.6,3.4-1.6,4.4c-2.5,2.9-3.3,6.1-3.1,10
		c0.2,4.1-0.7,8.2-0.7,12.3c0,11.4-0.2,22.7-2.4,33.9c-1.3,6.9-3.6,13.7-5.3,20.1c0.6-0.9,1.6-2.2,2.6-3.6c0.2,0.1,0.4,0.3,0.7,0.4
		c0,2.8-0.9,5.4-2.5,7.5c-5,6.6-5.1,14.4-5.1,22.1c0,3.5,0.6,6.9,1.1,10.4c0.9,6.8-0.2,13.3-2.2,19.6c-0.1,0.4-0.5,0.6-0.8,0.9
		c-0.2-0.4-0.5-0.8-0.6-1.2c-0.1-0.4,0-0.9-0.4-1.5c-2.5,8-5.1,16.1-7.5,24.2c-1.8,6.1-3.4,12.3-4.9,18.5c-0.4,1.7-0.4,3.6-0.6,5.4
		c-1.2,9.8-1.9,19.7-3.7,29.4c-1.2,6.2-4.1,12.1-5.9,18.2c-1.7,5.9-3.1,11.9-4.5,17.9c-0.3,1.3-0.1,2.7-0.2,4c-0.1,1-0.5,2-1,3
		c-2.4-10.9-3.6-21.7-1.5-33.4c-2.5,3.6-4.8,6.5-4.3,10.8c0.2,1.4-0.4,2.8-0.6,4.2c-0.2,1.5-0.7,3-0.7,4.5c0.1,6-1.1,11.6-3.6,17
		c-1.9,4.1-4,8-3.2,12.9c0.1,0.7-0.2,1.5-0.7,2.4c-0.6-1.6-1.3-3.1-1.9-4.7c-5.3-13.8-8.2-28-7.1-42.9c0.3-4.6,0.1-9.2-2.1-13.4
		c0.2,1.7,0.5,3.4,0.6,5.1c0.3,5-0.7,9.8-2.6,14.4c-0.3,0.7-0.5,1.3-0.8,2c-2.8,5.9-2.6,11.6,1.6,16.9c-0.1,0.1-0.3,0.2-0.4,0.3
		c-0.6-0.7-1.4-1.2-1.8-2c-5.4-9.6-8.1-19.6-4.6-30.6c2-6.1,1.3-9.9-4.1-15.3c-2.3-2.3-5-4.3-7.9-6.2c0.7,1.7,1.3,3.5,2.2,5.1
		c0.9,1.6,2.2,3,3.3,4.5c-1.6,0.6-4-0.7-7.3-4.4c-2-2.3-3.8-4.9-5.8-7.6c-1,1.9-2.1,3.8-3.1,5.7c-2.2,4-4.4,7.9-6.5,11.9
		c-0.3,0.6-0.3,1.8,0.1,2.4c4.1,6.1,8.4,12.2,12.6,18.2c0.8,1.1,1.5,2.3,2.3,3.4c0,0.2,0,0.3,0,0.5c0.7,1.5,1.3,3,2,4.5
		c7.6,14.5,14.3,29.7,23.2,43.4c3,4.6,6.1,9,9.1,13.6c0.7,1.1,1.3,2.2,1.9,3.3c-0.2,0.2-0.4,0.3-0.6,0.5c-2.6-3.5-5.2-7-7.6-10.5
		c-9.3-13.2-16.3-27.9-23.6-42.3c-5.9-11.6-11.8-23.1-20.1-33.2c-0.2-0.2-0.4-0.5-0.7-0.8c-0.4,0.4-0.8,0.8-1,1.2
		c-14.7,24.8-29.4,49.5-43.9,74.4c-16,27.4-33.9,53.5-51.1,80c-12,18.5-24.1,36.9-36.1,55.4c-1.2,1.9-2.1,3.9-3.1,5.9
		c-0.4,0-0.9,0-1.4,0c0.3-0.7,0.4-1.5,0.8-2.1c5.3-8.3,10.6-16.5,16-24.7c17.9-27.5,35.8-54.9,53.5-82.6
		c9.2-14.4,18.2-29.1,26.9-43.9c18.6-31.5,37.7-62.5,54.5-95.1c8.6-16.7,17.1-33.5,25.6-50.3c5.9-11.7,11.8-23.5,17.5-35.3
		c4.5-9.4,8.6-19,13-28.5c4.5-9.8,9-19.7,13.5-29.5c1.2-2.6-0.8-7.3-3.2-7.1c-2.8,0.3-4.5-1-5.4-3.5c-1.5-4.2-5.4-4.5-8.6-6.1
		c-0.6,1.7-1.1,3.2-1.7,4.5c-6.9,15.2-13.7,30.5-20.9,45.5c-9.7,20.2-19.4,40.4-29.5,60.4c-7,13.8-14.3,27.5-21.9,41
		c-13.1,23.3-26.5,46.4-40,69.5c-15.3,26.1-31.2,51.7-48.3,76.5c-13.9,20.2-28.1,40.3-42.4,60.3c-7.8,10.9-15.8,21.5-23.9,32.2
		c-4.8,6.4-9.8,12.6-14.7,18.9c-0.4,0-0.9,0-1.3,0c1.5-2.1,3-4.1,4.5-6.2c9.4-12.3,18.9-24.6,28.2-37c6.6-8.9,12.9-18.1,19.4-27.1
		c6.7-9.3,13.7-18.3,20.1-27.7c8.9-13,17.8-26.1,26.1-39.6c17.3-28.2,34.3-56.6,51.4-84.9c2.5-4.1,4.7-8.5,7.1-12.7
		c0.7-1.2,0.6-1.9-0.2-3.1c-10-14.8-21-28.9-28.4-45.6c-5.2-11.8-10.8-23.3-16.3-35c-0.5-1.1-1.1-2.2-1.6-3.3
		c0.2-0.1,0.5-0.3,0.7-0.4c3.5,6.6,6.9,13.3,10.6,20.3c0-1.8,0-3.3,0-5.4c3.1,4.6,5.8,8.6,8.6,12.6c0.2-0.1,0.3-0.2,0.5-0.3
		c-0.5-2.3-1-4.6-1.4-6.9c-0.2-1.3-0.1-2.7,0.1-4c0.2-1.9,1.5-2.3,2.7-1.2c1.8,1.7,4,3.5,4.8,5.8c1.4,3.7,1.9,7.7,2.7,11.7
		c0.2,1,0.2,2,0.3,3.5c1-2.7,1.8-4.9,2.5-7.1c1-3.2,0.4-6.1-1.7-8.7c-0.5-0.6-0.9-1.1-1.4-1.8c4.2-1.6,6.8-0.3,7.9,3.8
		c0.4,1.7,0.5,3.4,0.7,5.2c0.4,4.2,0.8,4.9,5,9.5c-0.2-1.6-0.5-3.2-0.5-4.7c0-1.3-1.6-2.9,0.6-4.1c0.2,1.2,0.5,2.1,0.6,3
		c0.4,7.6,4.4,13.3,9.1,18.6c3.1,3.5,6.1,7,9.2,10.6c0.2-0.3,0.6-0.9,1-1.5c11.9-23.3,24.1-46.4,35.7-69.9
		c8.1-16.4,15.5-33.1,23.2-49.7c3.4-7.3,6.8-14.7,10.2-22c1.6-3.5,1.6-3.5-1.2-6.1c-0.3-0.3-0.7-0.6-0.9-0.8c-3.5,2-6.9,4-10.4,5.7
		c-7.3,3.7-15.1,5.7-23.1,4.5c-13.6-2-24.4,3.2-33.4,13.4c-5.7,6.4-11,13.2-16.5,19.8c-0.7,0.8-1.4,1.5-2.3,2.1
		c4.5-7.2,9.2-14.1,15-20.2c5.7-6.1,11.6-12,19.5-14.9c0-0.3,0.1-0.5,0.1-0.8c-1.1-0.4-2.1-1.1-3.3-1.2c-5.7-0.5-10.5,2.1-15.2,4.9
		c-1.6,1-3.2,2-4.8,3c-0.1-0.2-0.3-0.4-0.4-0.7c3.6-2.4,7.1-4.8,10.7-7.2c-0.5-1.2-1.7-1.6-3.9-0.9c-3,1-5.9,2-8.9,3
		c-0.8,0.3-1.6,0.4-2.5,0.2c3.1-1.5,6.3-3.1,9.6-4.7c-0.2-3-2.3-5.2-4.3-7.2c-4.4-4.3-7.2-9.6-9.5-15.4c-1.8-4.4-3.3-9.1-5.8-13.1
		c-3.8-6.1-14.6-11.7-23.2-7.5c-2.9,1.4-5.9,2.5-9.4,3.9c1.4-1.8,0.1-5.7-2.4-8.6c-0.2,0.7-0.4,1.2-0.9,2.4
		c-0.5-1.6-0.9-2.7-1.2-3.8c-1.7-5.8,0.1-11.4,1.6-16.7c1.9-6.7,4-13.5,7-19.8c5.1-10.6,3-24.1-6.6-32.4
		c-5.9-5.1-11.6-10.7-15.5-17.7c-3.3-5.9-5.7-12.3-8.6-18.5c-1.6-3.5-3.3-6.9-5.3-10.2c-2.1-3.5-5.2-5.7-9-6.6
		c-4.5-1.2-9-2.5-13.6-3.2c-5.3-0.8-10.1-2.8-14.8-5.4c-1.5-0.8-3-1.5-4.4-2.4c-7.8-4.6-15.9-1.7-21.4,3.4
		c-6.8,6.5-11.8,14.5-16.7,22.6c-4.2,6.9-6.5,14.4-7.9,22.3c-1,5.5-3.4,9.9-7.6,13c-4.8,3.6-9.9,6.8-14.9,10.1
		c-1.9,1.3-3.9,2.4-5.7,3.7c-5.4,3.9-8.1,9.4-8.2,16.3c0,5.4,0.5,10.7,2.5,15.6c1.2,2.8,2.5,5.6,4.4,7.9c1,1.2,3.3,1.4,5,1.5
		c4.2,0.2,7,2.8,10.1,5.2c0.9,0.7,2,1.1,2.8,1.8c1.5,1.3,3.3,2.6,4.4,4.3c3.9,6.6,7.5,13.4,11.2,20.1c0.3,0.6,0.4,1.4,0.3,2.2
		c-6-7.2-8.9-16.4-14.6-23.8c0.1,0.4,0.2,0.8,0.4,1.7c-1.7-1.7-3.1-3.3-4.6-4.6c-2-1.7-4.2-3.4-6.4-4.8c-2.4-1.5-4.8-1.2-6.8,0.9
		c-2,2.1-3.9,4.3-5.9,6.5c-0.5,0.6-1,1.3-1.8,1.7c1.8-4.5,4.8-7.9,8.5-10.9c-3.1,0.3-6.2-1-9.1,1.5c-3.8,3.1-7.2,6.4-9.2,11.2
		c-1.9,4.7-5.2,8.5-8.6,12c-0.5,0.5-1.1,0.9-2.1,1c1.1-1.6,2.2-3.2,3.4-4.8c-11,4.6-14.7,13.6-12.2,27.8c0.4-1,0.8-1.8,1.1-2.6
		c0.1,0,0.3,0.1,0.4,0.1c-0.2,1.6-0.6,3.1-0.7,4.7c-0.2,3.9-0.5,7.8-0.4,11.6c0.1,6.5-1.4,12.5-4.5,18.2c-0.6,1-1,2.2-1.3,3.4
		c1.9-3.5,7-3.8,7-9.1c0.3,0.1,0.6,0.3,0.9,0.4c0,0.9,0,1.8,0,2.7c0,3.8,1,7.2,2.6,10.7c1.2,2.6,1.8,5.7,2.3,8.6
		c1.3,7.9,2.7,15.8,3.4,23.7c0.4,5.4-0.2,10.9-0.8,16.4c-0.7,6.8-0.4,13.2,2.4,19.7c1.7,4.1,1.7,9.1,2.4,13.7
		c0.2,1.2,0.1,2.4,0.3,3.6c1.8-7,1-14.1,1.4-21.3c0.2,0.6,0.5,1.2,0.5,1.7c0.2,4,0.8,8.1,0.5,12.1c-0.8,11.5,0.6,22.4,5.2,32.9
		c1.5,3.4,2.1,7.2,3.1,11c0-0.8,0-1.6,0-2.4c-0.1-0.9-0.1-1.7-0.3-2.6c-1.2-7-1.4-13.9,0.9-20.7c0.4-1.1,0.9-2.1,1.3-3.1
		c0.2,0.1,0.4,0.1,0.5,0.2c0,0.4,0.1,0.8-0.1,1.2c-1.7,4.5-0.2,8.4,1.8,12.3c1.2,2.4,3.1,4,5.7,4.7c1.6,0.4,3,1.3,4.9,2.2
		c-0.6-1-0.9-1.8-1.5-2.4c-0.6-0.6-1.2-1.2-2-1.6c-4.9-2.7-5.3-5.8-4.1-11c0.6-2.5,1.1-5.1,2.1-7.5c3.8-9.3,5.5-19.3,9-28.7
		c2-5.4,2.4-11.6,3.6-17.4c1.9-9.4,4.5-18.4,11.1-25.5c4-4.4,5.1-10.1,6.6-15.7c1.6-5.8,1.8-11.6,1.5-17.7
		c-0.3-5.9,0.3-11.8,0.5-17.7c-1.6,0.4-2.8,1.6-3.5,3.7c-2,6.7-2.8,13.6-3.7,20.5c-1.1,8.6-2.7,17.1-7.9,24.2c-0.3,0.4-0.6,1-1,1.3
		c-5,4.4-6.3,10.5-7.6,16.8c-2.1,10-4.3,19.9-6.6,29.8c-0.4,1.9-1.4,3.7-2.2,5.4c-0.2,0.5-0.8,0.8-1.4,1c-2.6,0.7-4.5-0.7-6.2-2.5
		c-3.3-3.7-5.3-8.3-6.4-13.2c-2.3-9.9-4.6-19.9-6.2-29.9c-1.1-7.2-0.8-14.7-1.8-22c-0.8-6.4-2.5-12.7-3.7-19
		c-0.9-4.5-1.7-9-2.6-13.5c-0.1-0.5-0.3-1.1-0.6-1.4c-4-3.9-3.3-8,1.7-10.5c0.2-0.1,0.4-0.3,0.3-0.2c-0.8-2.2-1.7-4.2-2.2-6.4
		c-0.4-1.8,0.4-3.1,2-4.1c1.3-0.8,2.3-2.1,3.5-3.1c1-0.8,2-1.5,3.1-2.3c-0.2-0.5-0.4-1.1-0.5-1.7c-1.5-5.4-0.6-7.4,4.5-8.5
		c3.7-0.8,6.1-3.5,8.9-5.5c5.1-3.6,10.7-5.7,16.8-5.8c4.3-0.1,7.4,2.6,10.2,5.7c2.1,2.3,4.2,4.7,6,7.4c1.1,1.7,2.1,3.8,2.2,5.8
		c0.2,4.2,2.7,7.3,4.1,10.9c0.1,0.4,0.6,0.7,1,1c4.9,3.4,5.8,7.1,3,12.6c-1.9,3.6-2.8,7.5-2.8,11.6c0,6.5,0.4,13-0.2,19.5
		c-0.8,9.6-2.8,18.9-9.7,26.2c-2.1,2.3-3.6,5.5-4.7,8.5c-1.5,4.3-2.6,8.9-3.6,13.4c-1.7,7.9-2.8,15.9-5.6,23.5
		c-2.4,6.7-4.1,13.7-6.3,20.6c-1,3.2-2.4,6.3-3.5,9.4c-0.5,1.4-0.6,2.9-0.7,4.4c-0.2,2.5,0.8,4.4,2.8,5.8c4.2,3.1,4.2,3.3,4.9,8.8
		c-0.6-0.5-1-0.9-1.4-1.3c-1.3-1-2.5-2.4-3.9-2.7c-5.1-1-7.6-4.7-9.2-9.4c-0.1-0.4-0.3-0.7-0.4-1.1c-0.3,0-0.5,0-0.8,0
		c0,2.3-0.1,4.7,0,7c0.4,6.6,1.4,13.1,1.3,19.7c0,4.4-1.5,8.7-2.4,13c-0.3,0-0.7-0.1-1-0.1c0-0.6-0.2-1.2-0.1-1.8
		c1.5-11,1-21.7-3.5-31.9c-2.4-5.4-3.5-11.1-3.6-17c-0.2,0-0.4,0-0.7,0c0,3.6,0,7.3,0,10.9c-0.4,0-0.7,0.1-1.1,0.1
		c-0.4-3-0.8-5.9-1.1-8.9c-0.6-7-1-14.1-1.6-21.1c-0.1-1-0.5-1.9-1-2.9c-1.4,7.5-4.9,13.7-9.2,19.6c-6.5,8.9-14.2,16.5-22.6,23.4
		c-11.3,9.2-19.9,20.6-24.9,34.8c-1.3,3.8-2.2,7.7-3.3,11.5c0.2,0.1,0.3,0.1,0.5,0.2c1.8-3.5,3.6-7,5.3-10.5
		c2.9-5.7,6-11.1,10.9-15.2c0.8-0.7,1.3-1.7,1.9-2.7c1.4-2.1,2.7-2.7,5-1.7c2.6,1.2,4.3-0.2,6-1.9c1.1-1.2,2.3-2.1,4-1
		c1.1,0.7,1.3,1.4,0.2,2.3c-0.9,0.8-1.5,1.8-2.6,3c4.5-0.7,8.3-1.2,12.9-1.9c-0.8,1.4-1.2,2.3-1.8,2.9c-6.5,7.1-7.5,15.9-6.7,25.2
		c0.1,0.8,0.4,1.6,0.7,3.1c2.6-6.4,5.8-11.6,8.7-17c0.3,0.2,0.6,0.3,0.9,0.5c-0.4,1.5-0.9,2.9-1,4.4c-0.4,3.1-0.4,6.3-0.8,9.5
		c-1,7.9-5.3,13.5-12,16.5c-6.6,3-12.7,6.5-17.2,12.6c-2.6,3.5-4.5,7.5-6.7,11.4c0.3,0.2,0.5,0.5,0.8,0.7c2.4-2,4.8-4,7.3-6.1
		c-1,6.8-5.1,11.3-9.5,15.7c-8.8,8.7-15.5,18.8-17.3,31.7c-0.6,4.2-0.1,8.5,0.1,12.9c0.3-1.8,0.5-3.6,0.9-5.4
		c1.1-4.3,3.6-7.6,6.5-10.7c3.7-4,7.6-7.8,10.3-12.8c3.2-5.9,6.5-11.8,10.3-17.2c3-4.3,6.7-8.1,10.6-11.6
		c9.6-8.7,16.7-19.4,22.2-31.4c0.9-2,2-4,3.4-5.9c-0.2,0.6-0.3,1.2-0.5,1.8c-4.9,13.9-12.4,25.9-23.1,35.4
		c-9,8.1-16.7,17.5-21.3,28.8c-8.9,22-14.4,44.8-9.2,69c0.1,0.6,0.2,1.2,0.4,1.9c0.1,0.2,0.2,0.4,0.4,0.9c0.6-4.1,1.1-7.9,1.8-11.7
		c2.5-12.2,7.3-23.5,13.5-34c5.6-9.5,9.4-19.5,9.2-30.8c0-2.4,0.5-4.8,1-7.1c0.9,11.4,0,22.4-5.8,32.5c0.3,0.1,0.6,0.3,0.9,0.4
		c1.5-2.5,3.2-5,4.6-7.7c1.4-2.7,2.4-5.5,3.6-8.3c0.3,0.1,0.6,0.2,0.9,0.4c-1.1,3.5-1.9,7.1-3.2,10.4c-1.8,4.4-4,8.5-6.1,12.7
		c-3.2,6.6-5.1,13.5-6.2,20.8c-1.4,9.3-3.5,18.6-4.2,27.9c-0.7,9,0,18.2,0.1,27.3c0,0.7,0.3,1.5,0.5,2.2c0.9-4.7,1.8-9.3,2.6-13.9
		c0.2,0,0.4,0.1,0.6,0.1c-0.7,6.5-1.5,12.9-2.2,19.4c0.2,0,0.5,0.1,0.7,0.1c0.3-2.8,0.6-5.7,0.9-8.5c0.2,0,0.5,0,0.7,0
		c0,1.4,0,2.9,0,4.3c-0.6,16.1,2.9,31,11.7,44.3c1.1,1.7,2.3,3.3,3.4,4.9c-0.5,0-0.9,0-1.4,0c-2.8-4.4-5.8-8.6-8.2-13.3
		c-3.9-7.7-6-16-6.7-24.8c-0.1-1.3,0.4-2.9-1.4-3.6c-0.5-0.2-0.5-1.7-0.7-2.6c-3.4-15.9-3.5-31.7-0.2-47.7
		c1.1-5.2,1.8-10.5,2.4-15.7c1.1-9.5,4.4-18.1,8.7-26.3c0.5-1,1-2,1.4-3.1c-4.2,3.4-7.2,7.8-9.9,12.7c-7.5,13.9-11.1,29-12.5,44.8
		c-0.1,0.8-0.3,1.5-0.5,2.8c-2.9-12.8-4.9-25.2-4.2-38c0.7-12.8,4.7-24.7,9-36.8c-9.5,7.8-16.2,17-16.3,30.1
		c-0.2-0.6-0.5-1.1-0.5-1.7c-0.3-6.4-1.2-12.9-0.5-19.2c1-9.9,5.9-18.2,11.9-25.6c1.6-1.9,3.3-3.7,4.9-5.6c0.3-0.3,0.7-0.8,0.6-1.2
		c-1-3.9,1.1-7.2,2.3-10.4c4-10.9,11.6-18.3,21.9-22.6c8.8-3.7,13.2-10.5,13.5-20.4c0-1.1,0-2.2,0-4c-3.3,5.2-6.1,9.9-6,16
		c-1.8-0.8-3.3-10.7-3-18c0.2-6.6,3.6-11.7,7.3-16.8c-3.4,0.8-7.1-0.7-10,2.4c-0.2,0.3-0.9,0.4-1.2,0.2c-0.3-0.2-0.4-0.9-0.3-1.2
		c0.8-1.9,1.6-3.8,2.5-5.8c-0.5,0.2-1.2,0.4-1.6,0.9c-2.4,2.4-4.9,3.9-8.3,2.1c-0.5-0.3-1.6,0.1-2,0.5c-2.2,2.4-4.3,4.8-6.4,7.3
		c-5.6,6.8-9.2,15-12.8,23.1c-1.8,4-3,8.4-4.6,12.9c0.1-2,0.2-3.8,0.4-5.6c1.9-15.6,6.5-30.3,16.3-42.4c5.5-6.7,12.2-12.3,18.6-18.2
		c9.7-8.8,18.7-18.2,24.3-30.5c1.3-2.9,1.8-6.2,2.6-9.3c0.2-0.6,0.1-1.5-0.2-2.1c-2.3-4.8-2.4-10-1.6-15.1c2.4-15.4,0.4-30.3-3-45.2
		c-0.6-2.6-1.7-5-2.5-7.5c-0.6-2.1-1.1-4.3-1.7-6.4c-5.2,1.9-6.5,6.6-6.7,12.1c-0.4-0.1-0.7-0.2-1.1-0.2c-0.1-2.2-0.4-4.4-0.3-6.6
		c0.1-1.6,0.6-3.4,1.3-4.7c5.5-9.7,5.3-20.3,4.1-31c-0.7-6.4-1.1-12.6,1.1-18.8c1.3-3.6,3.5-6.2,6.5-8.2c2.6-1.7,5.3-3.4,7.5-5.5
		c2-1.9,3.7-4.3,5.1-6.8c3.4-6,7.9-10.5,14.7-12.5c-1.3-2.6-2.5-5.2-3.8-7.6c-5.2-9.6-3.9-24.2,3.2-31c2.9-2.8,6.5-4.8,9.9-6.9
		c5.6-3.4,11.2-6.7,16-11.4c2.3-2.2,3.9-5,4.3-8.1c2.2-15.1,9.3-27.6,18.2-39.2c4-5.3,8.2-10.3,14.4-12.8c5-2.1,9.9-2,14.8,0.3
		c2.7,1.3,5.3,2.6,7.8,4.1c5.4,3.2,11.6,3.7,17.4,5.2c3.1,0.8,6.3,1.3,9.4,2.3c7.3,2.4,10.8,8.7,13.7,15.4c2,4.5,3.6,9.2,5.6,13.7
		c3.7,8.4,9.6,15,16,21.3c3.7,3.6,7.8,6.9,10,12.1c3.3,7.6,3.8,15.2,0.3,22.9c-4.3,9.5-8,19.1-9.1,29.7c-0.2,1.6-0.3,3.4,0,5
		c0.2,1.2,1.1,2.2,1.7,3.3c0.9,1.6,1.9,3.2,2.8,4.8c0.4,0.7,0.7,1.5,1.1,2.4c1.7-0.8,3.2-1.5,4.6-2.3c7.8-4,14.9-2.3,21.9,2.4
		c4.7,3.1,7.1,7.8,9,13c2.2,6,4.2,12.1,8.2,17.1c1.3,1.6,2.7,2.9,3.9,4.6c1.4,1.9,2.5,4,3.8,6c-0.1,0.2-0.3,0.3-0.4,0.5
		c1.2,0.1,2.4-0.1,3.5,0.3c1,0.3,1.8,1.2,2.5,1.6c3-0.1,5.9-0.3,8.8-0.4c0.4,0,1,0.1,1.3,0.3c2,2.6,4.5,1.1,6.9,1.1
		c5.5-0.1,10.9,0,16.4,0c8,0,15.4-2.2,22.4-6.2c1.7-1,3.3-2.3,4.8-3.5c0.4-0.4,0.8-1.2,0.7-1.7c-0.3-2.8,0.5-5.1,2.2-7.2
		c0.6-0.8,0.6-2.2,0.9-3.4c0-0.1-0.1-0.3-0.1-0.5c1.1-6.5-2.1-12.7-1.4-19c0.5-4.9,0.1-10.2,3.4-14.6c1.6-2.1,2.1-4.7,2-7.4
		c0-1.4,0.3-3,0.9-4.3c0.9-1.9,2.9-1.9,3.9,0c1.5,2.8,2.4,5.7,2.4,9c0,3.5,0.6,6.9,1,10.6c1.9-1,3-2.2,3.3-4.2
		c0.2-1.5,0.5-3,1.1-4.3c0.5-1,1.5-2.3,2.5-2.5c3.2-0.6,4.2-3,5.1-5.7c1.7-5.2,3.2-10.6,4.6-15.9c0.2-0.6-0.1-1.6-0.4-2.1
		c-2.8-4.5-6.3-8.3-11.3-10c-0.7-0.3-1.4-0.6-2.1-0.9c-4.8-2.1-6.2-4.7-5.5-10.2c0.5-3.7,1.4-7.3,1.7-11c0.3-4.3,0.4-8.7,0.2-13
		c-0.3-4.5-4-7.8-8.2-8.7c-3.4-0.7-6.6-2-9.9-3.1c-1.6-0.5-3.1-1.2-4.7-1.6c-3.3-0.8-4.8-2.3-5-6c-0.4-5-0.4-10-1-14.9
		c-0.3-2.3-1.3-4.7-2.5-6.7c-1.3-2.1-3.3-2.9-5.9-2c-3.8,1.3-7.4,0.9-10.8-1.7c-4.4-3.3-9.7-4.1-14.8-5.2c-5-1.1-10-2.1-15.1-2.5
		c-6-0.5-9.7,2.2-12.1,8.1c-0.5,1.3-1.2,2.5-2.1,3.6c-0.3,0.4-1.6,0.5-1.8,0.3c-3.7-4.7-9-6.5-13.9-8.9
		c-17.6-8.6-36.2-14.1-55.2-18.3c-9.4-2-18.9-3.6-28.4-4.8c-12.8-1.7-25.7-1.4-38.6-0.2c-24.3,2.2-47.8,8.2-70.8,17
		c-1.1,0.4-2.3,0.8-3.4,1.2c-0.1,0-0.3,0-0.8-0.1c34.6-14.9,70.3-23,107.4-19.7C234.7,48,270.2,57,302.8,76.5
		c1.2-4.3,3.5-8.6,8.2-10.2c3-1,6.5-1.4,9.7-0.8c7.6,1.3,15.1,3.2,22.6,5.1c1.8,0.5,3.7,1.4,5.2,2.7c3,2.4,6.2,2.6,9.6,2
		c5.4-0.9,9.4,2,10.2,7.8c0.5,3.3,0.5,6.6,0.7,10c0.1,2,0.1,4,0.3,5.9c0.4,4,0.9,4.5,4.6,5.6c4.5,1.4,8.9,3.3,13.5,4.3
		c3,0.7,5.2,1.8,7.1,4.3c1.5,2,2.3,4,2.4,6.5c0.4,7,0.1,13.9-1.4,20.8c-0.2,0.7-0.3,1.4-0.4,2.1c-0.7,6,0.2,8,5.5,9.9
		c6.9,2.6,11.6,7.6,15,14.2c1.5,3,3.4,5.8,5.2,8.6c0.8,1.2,1.9,2.2,3.1,3.5c0.8-1.3,1.3-2.3,2-3.1c1.4-1.5,2.7-3.1,4.3-4.3
		c1.9-1.6,3.8-1.1,5.7,0.4c1.9,1.6,3.2,1.4,4.1-1.1c1.3-3.6,2-7.4,3.2-11.1c1.8-5.6,3.8-11.1,5.8-16.7c0.2-0.6,0.9-1,1.4-1.5
		C450.5,142.1,450.5,142.7,450.5,143.3z M130.5,214.3c1.7-2.3,1.5-4-0.3-4.5c-1,1.2-1.8,2.3-2.6,3.3c-0.6-0.2-1.1-0.5-1.7-0.5
		c-2,0-4,0.3-6,0.1c-2.5-0.3-5.7,0.6-6.5-3.4c0,0-0.3,0-0.5,0c-0.2,3.2,0.9,5.8,3,8C119.7,221.4,127.7,221.9,130.5,214.3z
		 M335.5,411.7c0.2-0.1,0.5-0.3,0.7-0.4c0.5,0.3,1.1,0.6,1.5,1c2.6,2.4,5.1,4.9,7.7,7.3c6.9,6.3,8.4,11.3,5.4,19.4
		c-2.3,6.2-0.8,12.5,0.8,18.6c1.7-4.5,3.4-9,4.6-13.6c1.9-7-0.3-13.8-1.2-21.1c0.6,0.5,1,0.8,1.2,1.1c3.8,6.4,5.6,13.3,5.1,21
		c-0.7,9.8,0.2,19.5,2.8,29c1.1,3.8,2.3,7.5,3.6,11.5c1.1-2.9,2-5.3,3.1-7.6c3.1-6.4,4.4-13.2,4.1-20.4c-0.2-4.7,0.1-9.4,0.5-14
		c0.2-2.1,1-4.2,1.6-6.2c0.2,0.1,0.4,0.1,0.6,0.2c-0.2,1.6-0.5,3.3-0.7,4.9c-0.2,1.6-0.2,3.1-0.4,4.7c1.9-4,4.1-7.5,7.6-10.1
		c-2.4,9.3-1.9,18.4-0.7,27.1c2.3-7.5,4.5-15.5,7.3-23.2c3.1-8.4,4.8-17.1,6-26c1.1-8.5,0.3-17.3,3.2-25.6c0-0.1-0.1-0.2-0.3-0.4
		c-0.8,2.4-1.3,4.9-2.4,7c-2.1,4.3-4.4,8.6-7,12.7c-1.7,2.7-3.5,2.4-5.2-0.2c-0.9-1.4-1.7-2.8-2.2-4.4c-1.3-4.5-2.5-9-3.4-13.5
		c-3-15.3-4.4-30.7-4.5-46.3c0-6.4,0-12.7,0-19.5c-0.5,0.8-0.8,1.4-1,1.9c-5.9,12.4-11.6,24.9-17.7,37.2
		c-7.8,15.5-16.1,30.8-24.1,46.2c-0.3,0.6-0.8,1.7-0.6,2.1c2,3.1,4.1,6,6.2,9c0.1-0.1,0.3-0.3,0.4-0.4
		C337.2,417.5,336.4,414.6,335.5,411.7z M300.5,412.8c4.4-7.8,8.4-14.9,12.4-22.1c0.3-0.5,0.1-1.6-0.3-2.1c-1.4-2-2.9-4.1-4.5-5.9
		c-3.8-4.4-8.3-8.1-10.7-13.7c-0.2-0.5-0.8-0.9-1.3-1.3c-4.1-4.2-8-8.5-7.6-15.4c0.1-1.7-0.9-3.6-1.8-5.2c-0.8-1.3-1.7-1.1-3.1,0
		c3.5,3.9,3.3,8.1,1.1,12.5c-1.2,2.3-1.2,4.6-0.2,6.8c0.9,2,2.1,3.8,3.1,5.8c0.3,0.6,0.6,1.1,0.9,1.7c-0.2,0.2-0.4,0.3-0.6,0.5
		c-1-1.1-2-2.1-2.9-3.3c-2.6-3.4-4.4-7-4.5-11.6c-0.1-3.1-0.9-6.3-1.8-9.3c-0.9-3-2.8-5.3-5.8-7c-1.1,7.5,1.4,13.4,5.7,18.8
		c-5.9-3.7-9.5-9.5-13.7-15.3c-0.5,3.4,0.7,6,1.9,8.6c7.1,15.7,15,31,25.3,44.8C295,404,297.5,408.2,300.5,412.8z M107.8,218.9
		c-0.4,5.1,1.6,8.8,6.2,9.9c3.1,0.8,6.6,0.7,9.7,0.2c2.5-0.5,4.9-2.1,7.1-3.6c0.7-0.5,0.8-2.1,1.2-3.1c0.3-0.6,0.6-1.2,0.9-1.8
		c0.2,0.1,0.4,0.2,0.6,0.3c0.1,1.6,0,3.3,0.3,4.9c0.4,2.3-0.1,4.1-2.1,5.2c-1.8,1.1-2,2.7-1.4,4.8c0.6-0.3,1-0.5,1.9-0.9
		c0.4,2.4,0.7,4.5,1.1,6.6c0.1,0.8,0.4,1.5,0.7,2.3c0.5-0.6,1.1-1.1,1.6-1.7c1.9-2.1,3.5-4.7,5.8-6c3.1-1.9,4.3-4.5,4.8-7.8
		c0.5-2.8-1.7-5.9-4.1-6.1c-0.3,1.1-0.5,2.3-0.8,3.4c-0.2,0-0.4,0-0.6-0.1c-0.1-1.2-0.1-2.5-0.2-3.7c-0.1-1.7,0.3-3.9-0.5-5
		c-1.8-2.4-2.3-4.9-2.7-7.8c-0.4-2.9-2.2-4.2-4.9-4.1c0.2,0.5,0.4,1,0.5,1.5c1.1,4.3-0.5,10.4-3.3,12.4c-4.1,3-8.5,3.3-12.7,0.7
		C113.8,217.6,111,217.7,107.8,218.9z M415.6,222c2.2-1.9,5.5-2.4,5.2-6.3c-0.4-0.1-0.8-0.1-1.6-0.2c1.3-2.1,2.4-3.9,3.6-5.6
		c1.4-1.9,1.3-3.7,0.4-5.8c-1.1-2.4-3.1-3.6-5.3-4.5c-3.4-1.4-6.3-3.4-8.3-6.9c-0.7-1.3-2.1-2.3-3.2-3.2c-2-1.6-3.8-0.8-4.4,1.7
		c-0.6,2.6-1,5.3-1.6,7.9c-0.1,0.6-0.6,1.2-1.1,2.1c-0.3-0.9-0.5-1.4-0.7-1.9c-3.5,2.7-3.5,4.1-0.1,6.7c1.8,1.4,3.6,2.7,5.4,4.2
		c1.5,1.3,3,2.6,4.4,4C410.8,216.7,414.8,217.5,415.6,222z M387.8,220.8c8,5.3,15.6,10.2,22.9,15.5c0.4-2.3,0.3-4.9,3.3-6
		c-0.2,0.8-0.3,1.3-0.4,2c2.7-1.8,3.2-4.8,1.9-7.8c-1.6-3.6-3.7-6.6-7.1-8.8c-2.8-1.9-5-4.7-7.6-6.9c-1.7-1.5-3.8-1.6-5.9-0.8
		c-2.2,0.8-2.3,2.6-2.3,4.7c0,1.8-0.3,3.6-0.4,5.4c-0.2,0-0.4,0-0.6,0c-0.2-0.5-0.5-1.1-1-2.3C389.4,218,388.5,219.7,387.8,220.8z
		 M99.7,231.6c0-0.2,0-0.4,0-0.5c1.1,0,2.3,0,3.4,0c0.6,0,1.3,0.1,1.9-0.2c3-1.3,3.2-2.4,2.4-6.5c-0.7-3.6-1.1-7.3-1.5-11
		c-0.1-0.9,0.2-2.2,0.8-2.8c1.6-1.6,1.4-3.3,0.6-5c-0.7-1.5-1.6-2.9-2.7-4c-0.6-0.7-1.7-1.2-2.5-1.1c-2.5,0.4-5,1.1-7.4,1.8
		c-4.2,1.2-4.9,2.4-3.6,6.9c0.3,1.1,1,2.1,1.5,3.2c1.3,3.2,2.9,6.4,3.9,9.7c0.7,2.5,0.7,5.3,1.1,8c0.3,2.4,1.3,3,3.8,2.2
		C100.7,232,100.2,231.8,99.7,231.6z M384.1,229.8c-0.3,0.4-0.6,0.7-0.8,1c-2,3.7-0.4,8,3.8,9.7c4.4,1.8,9,3.1,10.9,8.6
		c0.2,0.6,2.3,0.9,3.4,0.7c0.6-0.1,1.2-1.4,1.4-2.3c0.3-1.5,0.2-3.2,0.6-4.7c0.2-0.9,1-1.7,1.6-2.6c0.2,0.1,0.3,0.3,0.5,0.4
		c-0.1,0.8-0.3,1.5-0.5,2.8c0.7-0.5,1.1-0.7,1.4-1.1c2.1-3.2,1.9-6-0.8-8.6c-0.9-0.9-2.1-1.4-3.2-2.1c-2.1-1.3-4.2-2.5-6.2-3.8
		c-1.5-1-2.8-2.4-4.3-3.4c-2.6-1.8-5.1-0.5-5.5,2.6c-0.2,1.7-0.5,3.4-0.8,5.1c-0.2,0-0.4,0-0.7-0.1
		C384.5,231.4,384.3,230.7,384.1,229.8z M410.9,186.5c-1.3-2.9-2.3-0.6-3.1-0.3c-1.2,0.6-1.1,1.6-0.2,2.7c1.5,1.8,3,3.7,4.5,5.6
		c0.6,0.7,1.3,1.4,2,1.8c3.1,1.8,6.3,3.4,9.8,5.3c0.3-1.5,0.5-3,0.8-4.4c0.1-0.5-0.1-1.2,0.2-1.6c1-1.2,2.2-2.4,3.3-3.5
		c1.7-1.8,1.1-3.6-1.1-4.5c-2.7-1.1-5.3-2.5-7.8-3.9c-1.2-0.7-2.1-2-3.3-2.9c-1.7-1.4-3.2-0.9-3.9,1.2
		C411.8,183.2,411.5,184.6,410.9,186.5z M431.6,191.7c2.3-6.1,4.4-11.5,6.3-16.6c-1.2-0.8-2.2-1.4-3.1-2.2c-1.3-1.2-2.6-1.5-3.8-0.3
		c-1.7,1.7-3.3,3.6-4.6,5.6c-1.3,2-2.4,2.4-4.2,0.9c-1-0.8-1.9-1.8-2.6-2.9c-1.9-2.7-3.6-5.5-5.5-8.3c-1.1,4.2-2.2,8.2-3.3,12.3
		c2.8-1.6,5.1-1.5,7.5,0.6c2.4,2.1,5.1,3.9,8,5C428.9,186.9,431.2,187.8,431.6,191.7z M90.6,212.4c-0.5,0.3-0.9,0.6-1.3,1
		c-1.9,1.7-3.7,3.3-5.5,5c-0.4,0.4-0.6,1.2-0.7,1.9c-0.2,2.9,1.2,4.9,3.3,6.6c2.9,2.4,5.3,5.3,6.5,9.2c0.2,0.5,0.5,1.1,0.9,1.5
		c0.1,0.1,1-0.3,1-0.6c0.1-0.5-0.2-1.1-0.3-1.7c1-0.4,2-0.8,2.6-1.1c-0.5-2.3-0.9-4.2-1.2-6.1c-0.4-2.6-0.7-5.2-1.2-7.7
		C94,217.4,92.9,214.6,90.6,212.4z M132.9,227.1c-0.2-0.2-0.5-0.5-0.7-0.7c-6.8,4.4-13.7,6.6-21.5,2.2c0.3,1.3,0.5,2.4,0.8,3.6
		c1.9,8.5,5.1,9.5,10.9,8.6c1.4-0.2,3-1.4,3.9-2.6c1.2-1.7,1.6-3.9,2.6-5.8c0.5-0.9,1.4-1.5,2-2.4C131.6,229,132.2,228,132.9,227.1z
		 M99.9,234.8c1.1,1.5,2,2.9,3,4.3c0.9,1.3,2,2.5,2.6,4c0.7,1.6,0.9,3.5,1.5,5.2c0.2,0.5,1.1,1.3,1.4,1.2c0.9-0.4,1.6-1.1,2.4-1.8
		c-0.8-0.6-1.2-0.9-1.5-1.1c0.1-0.2,0.1-0.4,0.2-0.6c1.1,0.4,2.3,0.5,3.3,1.1c1.6,1,2.6,0,2.5-1.2c-0.2-1.9-1-3.8-1.7-5.6
		c-1-2.5-2.3-4.9-3.4-7.4c-0.4-0.9-0.5-1.9-0.7-2.8C106.3,231.6,103.3,233.1,99.9,234.8z M129.6,206.7c-1.9-0.8-3.4-1.8-5.1-2.2
		c-1.6-0.4-3.4-0.3-5.1-0.4c5.1-1.8,9.1-0.3,12.1,4.5c0-5.6-3-8.3-7.9-7.5c-1.5,0.2-3,0.3-4.5,0.2c-3.7-0.3-5.9,1.9-5.8,5.7
		c0.9-0.8,1.9-1.8,3-2.7c0.1,0.2,0.3,0.3,0.4,0.5c-0.4,0.4-1,0.8-1.1,1.3c-0.3,1.2-0.7,2.6-0.3,3.7c0.3,0.8,1.6,1.4,2.6,1.6
		c2.1,0.4,4.3,0.5,6.5,0.5c3.6,0.1,3.6,0,4.5-3.7C128.8,207.9,129.1,207.6,129.6,206.7z M424.1,209.7c-0.4,1.3-0.9,2.5-1.2,3.7
		c-0.5,2.1-0.5,4.4-1.4,6.3c-0.4,1-2.3,1.1-3.5,1.8c-0.7,0.4-1.4,0.9-2,1.3c3.1,3.5,5.7,6.3,8.8,9.7c0.7-2.8,1.4-5.2,2-7.5
		c-0.2-0.1-0.3-0.1-0.5-0.2c-0.8,1.3-1.6,2.6-2.4,4c-0.1-0.1-0.2-0.1-0.3-0.2c1.3-2.6,2.6-5.3,4-8.2c0.2,0.9,0.4,1.5,0.5,2.2
		c0.6-0.7,1.1-1.2,1.5-1.7c1.6-1.9,1.4-5.3-0.6-7C427.6,212.7,426.1,211.4,424.1,209.7z M387.4,203.2c-0.2-1.1-0.1-2.1-0.5-2.6
		c-1.1-1.2-2.5-0.6-2.5,1.3c-0.1,4.3,0.3,8.6,0.5,12.9c0.1,1.9,0.3,3.9,0.4,5.8c0,0.7-0.1,1.5-0.2,2.2c0.2,0.1,0.4,0.1,0.6,0.2
		c0.2-0.6,0.4-1.2,0.6-1.7c0.8-1.7,1.7-3.4,2.5-5.1c0.7-1.6,1.5-3.2,2.2-4.8c0.5-1.1,0.7-2.3,1.4-3.2c1.8-2.3,2.2-5,1-7.6
		c-0.8-1.6-1.7-2.2-3.1-0.7C389.5,201.1,388.5,202.1,387.4,203.2z M123.5,255.1c1.8-2.2,3-4.2,4.7-5.6c1.1-0.9,2.9-0.9,4.3-1.5
		c0.7-0.3,1.4-0.9,2-1.6c0.1-0.2-0.3-1.4-0.6-1.4c-2.3-0.5-2.5-2.5-2.7-4.3c-0.2-1.8-0.8-3.1-2.7-3.2c-2.3,3.8-2.3,3.8-6.7,5.8
		c-1.3,0.6-2.3,2.1-1.4,2.9c1.7,1.5,1,3.3,1.5,4.9C122.2,252.5,123,253.9,123.5,255.1z M94.4,239.8c-0.5,0.2-0.9,0.4-1.4,0.6
		c-0.5-1.2-0.9-2.4-1.5-3.5c-1.3-2.3-2.5-4.7-4-6.8c-2-2.7-4.4-2.4-6.1,0.6c-1.4,2.5-0.8,5.3,1.8,6.5c3.3,1.5,5.1,3.9,5.4,7.7
		c0,0.2,0,0.3,0.1,0.5c0.3,0.5,0.6,1.3,1,1.4c0.4,0.1,1-0.5,1.4-0.9c0.3-0.3,0.4-0.8,0.7-1.4c-0.7-0.2-1.2-0.3-1.6-0.4
		C91.6,242.6,93,241.2,94.4,239.8z M409.3,237.9c-0.3,0.7-0.4,1-0.5,1.4c-0.5,2.2-1.2,4.2-3.4,5.2c-0.6,0.3-0.9,1.3-1.2,2.1
		c-0.4,1.3-0.7,2.6-1,3.8c1,1.6,2.1,3.4,3.2,5.3c0.5-0.5,1-0.9,1.6-1.4c-0.3,1.1-0.5,1.9-0.7,2.7c4-2.1,3.6-7.9,7.9-9.2
		c-1-1.6-2.1-3.1-3-4.6C411.2,241.5,410.4,239.9,409.3,237.9z M390,197.7c1.8,0.5,3.3,0.8,4.9,1.2c0-0.1,0.1-0.4,0-0.7
		c-0.4-3.9-0.7-7.9-1.2-11.8c-0.3-2.6-0.9-5.2-2.9-7.3c-1.7,6.4-3.2,12.5-4.8,18.5c0.3-0.4,0.6-1,1-1.7c0.3,0.5,0.1,0.7,0.1,1
		c0,0.7,0.1,1.4,0.1,2c0.5-0.5,1-0.9,1.4-1.4c0.4-0.6,0.8-1.2,1.2-1.8c0.1,0.1,0.3,0.1,0.4,0.2C390.2,196.7,390,197.4,390,197.7z
		 M121.9,259.8c0-3.4-2.8-9.6-5.6-12.3c-0.7,0.5-1.4,1.2-2.2,1.5c-1.7,0.6-3.6,1-5.5,1.5c0.6,2.2,1.2,3.7,3.4,4
		c1.7,0.2,3.3,1.1,4.9,1.7c0.3,0.1,0.7,0.4,0.8,0.7C118.7,259.7,119.3,260.2,121.9,259.8z M95.2,238.7c2.8,4.2,2.9,4.1,3.8,9.4
		c0.4,2.4,2.1,2.5,3.6,2.7c1.4,0.2,2.3-1.7,2.3-3.6c0.1-5.2-4.1-7.7-6.3-11.9c-0.5,1.3-0.8,2.2-1.2,3.4c-0.2-0.9-0.4-1.3-0.5-1.8
		C96.3,237.6,95.8,238.1,95.2,238.7z M430.4,194.7c-0.4,1.1-0.9,2.2-1.1,3.3c-0.7,3.9-1.4,7.9-2,11.8c-0.1,0.4,0.4,0.9,0.6,1.3
		c0.3-0.4,0.8-0.7,0.9-1.1c0.3-1,0.5-2,0.8-3.4c0.1,2.4,0.2,4.3,0.4,6.2c0.3,0,0.5,0.1,0.8,0.1c1.5-2.5,0.8-5.6,1.6-8.3
		C433.4,201,432.9,197.6,430.4,194.7z M413.1,241.7c0.9-1.8,1.7-3.2,2.4-4.6c0.7-1.4,1.3-2.8,1.9-4.2c0.1,0.1,0.2,0.1,0.3,0.2
		c-1.3,3-2.5,6.1-3.8,9.1c0.2,0.1,0.4,0.2,0.6,0.3c1.4-3.1,2.9-6.2,4.3-9.2c0.5,2,1,3.8,1.5,5.6c3.6-4.5,2.5-9.4-2.6-11.3
		c0.1,2.4-0.6,4.4-2.7,5.7C413.3,234.3,412.3,239.2,413.1,241.7z M94.2,252.1c0.3,1.1,0.6,2.2,1,3.6c1.8-1.2,3.9-2,3.5-4.1
		c-0.6-3.1-1.9-6-3-9c-0.3,0-1,0-1.2,0c-1.5,2.2-2.9,4.2-4.5,6.6c1.7,0.7,3.6,1.4,5.5,2.2c-0.1,0.2-0.1,0.5-0.2,0.7
		C95.1,252.2,94.7,252.2,94.2,252.1z M102.3,252.7c0.7,1.1,1.2,2.3,2.1,3c1.8,1.5,3.7,3,5.8,4c1.1,0.5,2.7,0.5,3.9,0.1
		c0.8-0.3-0.5-3.4-1.8-4c-0.5-0.3-1.2-0.3-1.7-0.5c-0.7-0.3-1.4-0.6-1.8-1.2c-0.8-1.1-1.1-3.1-2-3.4c-1.1-0.3-2.5,0.9-3.7,1.4
		C102.8,252.2,102.7,252.3,102.3,252.7z M107.7,202.2c0.3,1.2,0.6,2,0.6,2.8c0.1,1.8,0.8,4.1,0,5.2c-1.5,2.1-1.2,4-1,6.3
		c0.4,0.1,0.8,0.3,1.2,0.3c2.7,0.2,3.2-0.3,2.6-3c-0.6-2.6-0.4-5,0.5-7.4c0.3-0.9,0.7-1.7,1.2-3C111.1,203,109.6,202.6,107.7,202.2z
		 M101.3,260.5c1,3.4,2,4,5,3.3c-0.5-2-0.6-4.3-1.5-6c-1-1.9-2.7-3.4-4.1-5.1c-0.7,0.8-1.7,1.8-2.6,2.9c-0.5,0.6-0.7,1.4-1,2.1
		c0.7,0.3,1.4,0.7,2.1,0.9c1.5,0.6,3,1.1,4.6,1.7c-0.1,0.3-0.2,0.5-0.2,0.8C102.8,260.9,102.1,260.8,101.3,260.5z M41.1,464.4
		c-3.6,3.4-8.3,5.1-8.2,11.3C36.4,472.7,39.4,469.6,41.1,464.4z M415.2,245.8c1.9-2.4,3.5-7.3,2.9-9.2
		C415.8,239.9,414.4,244.3,415.2,245.8z M119.6,242.1c-1.1-0.1-2.2-0.2-3.5-0.3c0.6,1.8,1,3.2,1.7,5.2
		C118.5,244.9,119,243.7,119.6,242.1z M433.3,199.7c-0.1,2.4-0.2,4.2-0.3,6C435,203.5,435.1,202.3,433.3,199.7z"/>
	<path class="st0" d="M143.6,650.5c4.9-6.3,9.9-12.5,14.7-18.9c8-10.7,16.1-21.3,23.9-32.2c14.3-20,28.4-40,42.4-60.3
		c17.1-24.8,33-50.4,48.3-76.5c13.5-23,26.8-46.2,40-69.5c7.6-13.5,14.9-27.1,21.9-41c10.1-20,19.9-40.2,29.5-60.4
		c7.2-15.1,14-30.3,20.9-45.5c0.6-1.3,1-2.8,1.7-4.5c3.2,1.6,7,1.8,8.6,6.1c0.9,2.6,2.6,3.8,5.4,3.5c2.4-0.2,4.4,4.4,3.2,7.1
		c-4.5,9.8-9,19.7-13.5,29.5c-4.3,9.5-8.5,19.1-13,28.5c-5.7,11.9-11.6,23.6-17.5,35.3c-8.5,16.8-16.9,33.6-25.6,50.3
		c-16.8,32.6-36,63.6-54.5,95.1c-8.7,14.8-17.7,29.4-26.9,43.9c-17.7,27.6-35.7,55.1-53.5,82.6c-5.3,8.2-10.7,16.5-16,24.7
		c-0.4,0.6-0.5,1.4-0.8,2.1C169.6,650.5,156.6,650.5,143.6,650.5z"/>
	<path class="st0" d="M350.1,0.5c33.4,0,66.9,0,100.4,0c0,10.2,0,20.3,0,30.5c-1-0.2-2.1-0.3-3.1-0.5c-2.5-0.4-4,0.7-4.7,3.2
		c-0.5,1.9-1.3,3.7-1.9,5.7c-0.6-0.3-1-0.5-1.4-0.8c-4.1-2.6-8.2-5.2-12.4-7.7c-12.1-7.1-24.7-13.2-37.7-18.2
		c-8.7-3.4-17.6-6.2-26.5-9.1C358.6,2.3,354.3,1.5,350.1,0.5z"/>
	<path class="st0" d="M450.5,623.3c0,9,0,18.1,0,27.1c-3.6,0-7.2,0-10.8,0c-5.3-12.1-10.6-24.3-16.1-36.4
		c-4.7-10.5-11.3-19.4-20-26.8c-7.3-6.2-14-13.2-20.9-19.8c-0.6-0.6-1.2-1.3-1.8-2c0.1-0.2,0.1-0.4,0.2-0.6c2,0.1,4,0.2,6,0.3
		c0.1-0.2,0.2-0.4,0.3-0.6c-2.1-2.3-4.1-4.6-6.2-7c6.8,0.5,12.4,3.7,17,8.6c4.1,4.4,7.8,9.2,11.8,13.7c10.6,12,21.2,24,31.9,35.8
		C444.5,618.5,447.6,620.8,450.5,623.3z"/>
	<path d="M450.5,623.3c-2.9-2.6-5.9-4.9-8.5-7.7c-10.7-11.8-21.3-23.8-31.9-35.8c-4-4.5-7.7-9.3-11.8-13.7c-4.6-4.9-10.2-8.1-17-8.6
		c2.1,2.4,4.2,4.7,6.2,7c-0.1,0.2-0.2,0.4-0.3,0.6c-2-0.1-4-0.2-6-0.3c-0.1,0.2-0.1,0.4-0.2,0.6c0.6,0.7,1.2,1.4,1.8,2
		c6.9,6.6,13.6,13.6,20.9,19.8c8.7,7.4,15.3,16.3,20,26.8c5.4,12.1,10.7,24.3,16.1,36.4c-0.4,0-0.9,0-1.4,0
		c-1.6-3.5-3.3-6.9-4.9-10.4c-3.9-8.9-7.7-17.9-11.6-26.8c-5.1-11.5-13.1-20.2-22.3-28.1c-6.6-5.6-12.5-12.1-18.7-18.2
		c-0.5-0.5-0.9-1.2-1.4-1.8c0-0.3,0.1-0.5,0.1-0.8c1.9-0.1,3.8-0.3,5.5-0.4c-2-2.3-4.2-4.8-6.7-7.7c0.9,0,1.6-0.2,2.1-0.1
		c8.3,1.6,15.6,5.1,21.3,12c11.3,13.4,22.7,26.6,34.2,39.7c4.4,5,9.5,9.3,14.3,14C450.5,622.4,450.5,622.9,450.5,623.3z"/>
	<path d="M335.7,455.1c0-0.2,0-0.3,0-0.5c0.8,0.8,1.7,1.5,2.3,2.4c4.5,6.7,8.8,13.4,13.3,20c6,9.1,11.7,18.4,18.2,27.1
		c10.2,13.9,23.1,24.4,39.2,29.6c12.5,4,25,3.7,37-2.4c1.6-0.8,3.3-1.6,4.9-2.4c0,0.3,0,0.6,0,1c-15.3,9.3-31.2,9.7-47.3,3
		c-12.5-5.2-23.1-13.3-31.5-24.2c-6.4-8.2-12-17.2-17.8-26c-5.9-8.9-11.6-17.9-17.4-26.9C336.3,455.6,335.9,455.4,335.7,455.1z"/>
	<path d="M350.1,0.5c4.2,1,8.5,1.8,12.6,3.1c8.9,2.8,17.8,5.7,26.5,9.1c13,5,25.6,11.1,37.7,18.2c4.2,2.5,8.3,5.1,12.4,7.7
		c0.4,0.3,0.9,0.5,1.4,0.8c0.7-2,1.4-3.8,1.9-5.7c0.7-2.5,2.2-3.7,4.7-3.2c1,0.2,2.1,0.3,3.1,0.5c0,0.3,0,0.6,0,1
		c-0.5-0.1-1-0.1-1.5-0.2c-3.5-0.8-3.9-0.6-5.2,2.9c-0.5,1.3-0.9,2.7-1.4,4c-0.5,1.2-0.3,1.8,0.7,2.5c2.5,1.6,5,3.4,7.5,5.1
		c0,0.5,0,1,0,1.4c-5.2-3.4-10.4-6.9-15.6-10.3c-12.2-7.8-24.9-14.7-38.2-20.1c-9.4-3.9-18.9-7.6-28.5-10.9
		c-6.1-2.1-12.5-3.3-18.7-4.9c-1-0.3-2-0.6-3-1C347.7,0.5,348.9,0.5,350.1,0.5z"/>
	<path d="M172.8,0.5c-4.4,2.3-8.8,4.6-13.3,6.8c-14.2,7-27.4,15.7-40.2,25c-11.3,8.1-22.4,16.4-31.9,27c-2,2.3-3.9,4.8-5.7,7.3
		C81.4,67.1,81.3,68,81,69c0,0-0.5,0.1-1.1,0.3c0-0.4-0.1-0.7,0-0.8c2.6-6,7-10.4,11.4-14.8c11.6-11.5,24.9-20.8,38.2-30
		C142,15.2,155,7.8,168.6,1.4c0.5-0.3,1-0.6,1.5-0.9C171,0.5,171.9,0.5,172.8,0.5z"/>
	<path d="M450.5,577.1c-10-0.8-19.2-4.4-27.7-9.7c-14.1-8.8-26.6-20-38.7-31.6c-0.9-0.9-1.7-2-2.6-3c0.2-0.2,0.3-0.3,0.5-0.5
		c2.6,2.5,5.1,5.1,7.9,7.5c12.3,10.3,23.9,21.7,38.1,29.2c7.1,3.7,14.5,6.3,22.4,7.3C450.5,576.5,450.5,576.8,450.5,577.1z"/>
	<path d="M67.5,650.5c-1.5-5.4-3.4-10.7-4.5-16.1c-1.4-6.6-2.6-13.4-2.9-20.1c-0.4-7.6,0.2-15.3,0.4-23c0-1,0.2-2,0.8-3
		c0.1,1.2,0.3,2.5,0.3,3.7c-0.6,12.1-0.7,24.3,1.6,36.2c1.3,7,3.5,13.7,5.4,20.6c0.2,0.6,0.3,1.2,0.4,1.8
		C68.4,650.5,67.9,650.5,67.5,650.5z"/>
	<path class="st0" d="M450.5,46.2c-2.5-1.7-4.9-3.5-7.5-5.1c-1.1-0.7-1.2-1.3-0.7-2.5c0.6-1.3,0.9-2.7,1.4-4
		c1.4-3.5,1.7-3.7,5.2-2.9c0.5,0.1,1,0.1,1.5,0.2C450.5,36.7,450.5,41.4,450.5,46.2z"/>
	<path d="M188.6,112.7c-6.7-8.7-9.9-17-8.9-22.2c1.1,3.7,2.1,7.7,3.4,11.5c1.6,4.5,4.3,8.4,8,11.2c4.6,3.4,6.3,8,5.9,13.8
		c-0.1,1.4-0.2,2.8-0.3,4.3c0,1.7,0,3.3,0.2,5c0.4,3.3,1.7,6,5,6.8c3.3,0.9,5.7-0.7,7.9-3.2c1.4-1.6,2.9-3.2,4.6-4.4
		c2.2-1.6,3.7-1,4.9,1.5c0.7,1.4,1.3,2.9,1.9,4.3c1,2.2,2.6,3.4,5,3.4c1.7,0,3.5,0.1,5.2-0.2c2.8-0.4,5,0.7,6.6,3.1
		c5.7,9.2,6.8,18.9,2.7,29.2c-2.1,5.3-5.7,9.4-9.1,13.8c-6,7.7-10.5,16.2-11.5,26.4c-0.2,2.3,0.1,4.7,0.5,7.1
		c0.3,1.7,1.3,2.9,2.9,3.9c4.2,2.6,8.4,5.5,12.2,8.6c0.9,0.7,1.3,3.1,1,4.5c-0.3,1.6-1.3,3.4-2.5,4.3c-6.2,5-13.2,7.7-21.2,6.2
		c-2.5-0.5-5-0.3-7.1,1.4c-6.7,5.5-14.2,9.1-22.4,11c-7.5,1.7-15.9-0.8-20-8.7c-3.4-6.5-5-13.3-4-20.8c0.2-1.7-0.7-3.5-0.7-5.3
		c0.1-2.9-1-5-2.7-7.3c-3.2-4.4-3-10-3.2-15.3c-0.1-3,0.3-6.1-0.1-9c-0.8-5.1-3.2-9.4-7.1-12.7c-4.7-3.9-8.1-8.8-8.8-15.2
		c-0.3-2.7,0-5.7,0.8-8.4c1-3.2,2.6-6.2,4.1-9.2c3.1-5.9,8.1-8.2,14.2-9.4c5.2-1,10.5-2.8,15.3-5.2c4.8-2.4,7.3-7.3,8.5-12.8
		c0.5-2.4,0.8-4.9,1.4-7.2C182.4,113.8,184.7,112.2,188.6,112.7z M163.7,191.7c0.1,0.3,0.1,0.6,0.2,0.8c-0.8,0.4-1.7,0.9-2.5,1.2
		c-4.8,2-4.4,2.5-2.6,6.4c0.1,0.1,0.1,0.3,0.2,0.4c3.9,7.1,4.4,14.4,2,22.2c-1.8,5.6-0.2,9.5,4.8,12.3c4.2,2.4,9.1,3.7,12.2,8.1
		c3.3,4.8,9,5.5,14,1.3c3.8-3.2,7.6-6.3,12.2-8.7c6.9-3.6,8.6-7.2,6.2-15.2c-2.3-7.7-1.2-15.4,2.8-22.4c0.4-0.7,0.7-1.5,1.2-2.4
		c-1.3-0.7-2.3-1.4-3.3-1.9c-1-0.5-2.1-0.9-3.2-1.4c0.1-0.3,0.2-0.6,0.3-0.8c1.4,0.4,3,0.6,4.1,1.4c3.2,2.3,5.3,1.8,7.5-2.6
		c1-2,0.7-8-0.7-8.6c-2.8-1.2-1.8-3.2-1.6-5.1c0.2-1.8,0.7-3.6,1.1-5.6c-1,0.2-1.7,0.3-2.5,0.5c0.3-0.9,0.8-1.6,1.5-1.9
		c0.9-0.3,1.9-0.3,2.9-0.4c4.8-0.9,5.6-3,2.8-7.2c-0.6-0.9-1.5-1.5-2.4-2.1c-0.8-0.5-1.6-0.8-2.4-1.2c0.1-0.1,0.1-0.3,0.2-0.4
		c0.8,0,1.7,0,2.6,0c0.7-2,1.4-3.9,1.9-5.9c0.4-1.5,0.4-3.1,0.7-4.7c0.3-1.5-0.2-2.4-1.4-3.3c-1.1-0.9-1.9-2.4-2.7-3.7
		c-0.6-1.1-0.9-2.3-1.4-3.5c-0.7-1.6-1.8-2.1-3.2-0.8c-1.8,1.7-3.4,3.6-5.3,5.2c-3.6,3.1-7.2,4.4-11.6,1c-2.2-1.7-4.1-3.6-6.2-5.5
		c-3.6-3.3-7.2-6.5-11-10c-0.6,1.4-1,2.2-1.4,3.1c-1.7,3.7-4,6.9-7.5,8.5c-4.5,2.1-9.3,3.5-14,5c-2.8,0.9-5.7,1.2-8.5,2.1
		c-0.8,0.2-1.9,1.7-1.8,2.4c0.7,3.5,1.7,6.8,2.6,10.3c1,0,1.8,0,2.6,0c-0.8,0.7-1.6,1.1-2.4,1.5c-1.9,1-4.3,5.5-3.3,7.2
		c0.7,1.2,2.8,1.6,4.3,2.2c0.7,0.3,1.5,0,2.2,0.3c0.7,0.3,1.3,0.9,1.9,1.3c-0.1,0.2-0.2,0.3-0.3,0.5c-0.8-0.1-1.6-0.2-2.3-0.4
		c0.5,2.4,1,4.6,1.3,6.8c0.1,1.1-0.1,3.1-0.6,3.3c-2.7,1.1-2.3,3.6-2.5,5.6c-0.5,5.7,3.3,8.5,8.1,6.1
		C160.8,192.3,162.3,192.1,163.7,191.7z"/>
	<path d="M68.6,506.4c-2.7-0.4-5.2,1.2-5.6,3.8c-0.9,6.4-3.7,11.7-8.4,15.7c-2.2,1.9-2.9,4.3-3.3,7c-0.6,4.6-1.2,9.3-1.9,13.9
		c-0.2,1.1-0.5,2.2-1.1,3.1c-4.7,6.2-4.3,12.8-1.2,19.5c0.5,1.2,1.1,2.3,1.7,3.5c0.2,0,0.5-0.1,0.7-0.1c0-1.2,0.2-2.4-0.2-3.5
		c-2.1-6.2-0.9-11.8,2.5-17.1c2.2-3.5,3-7.2,2.1-11.5c-0.5-2.4-0.2-5.1,0.3-7.5c0.7-3.2,2.5-3.8,5.2-2.1c1,0.6,1.9,1.5,2.9,2.3
		c1.2-2.3,1.5-4.3,0.3-6.6c-0.7-1.3-1.2-2.8-1.2-4.3c0-0.9,1-2.1,1.8-2.5c0.8-0.4,2.3-0.4,3,0.2c1,0.8,1.7,2.1,2.5,3.3
		c0.7,1,1.1,2,1.9,2.9c1.1,1.4,2.5,1.5,3.7,0.1c0.6-0.7,1.1-1.7,1.7-2.6c-1.2-0.5-2.8-1.3-4.5-2c-3.4-1.3-4.6-6.3-2.1-9.1
		c1.5-1.7,1.3-2.7-0.5-3.8c-0.6-0.4-1.1-1-1.6-1.5c0.1-0.2,0.2-0.3,0.4-0.5c1.1,0.8,2.5,1.3,3.3,2.3c1,1.3,0.7,2.8-0.5,4.1
		c-2.1,2.3-1.1,6.5,1.7,7.7c1.4,0.6,2.8,1.2,4,2.1c0.5,0.4,0.8,1.7,0.6,2.3c-1.8,3.5-6,3.6-8.2,0.3c-1-1.5-1.8-3.1-2.9-4.5
		c-0.3-0.4-1.3-0.6-1.6-0.4c-0.5,0.3-1,1.2-1,1.8c0.2,1.3,0.5,2.7,1.1,3.8c1.1,2.3,0.9,4.5,0,6.6c-0.7,1.8-1.9,1.9-3.4,0.7
		c-1.3-0.9-2.7-1.6-4.1-2.4c-0.6,1.8-1.4,3.5-1.6,5.3c-0.2,1.4,0,3,0.4,4.5c1,4.6-0.5,8.6-2.8,12.3c-2.6,4.1-3.8,8.5-2.5,13.5
		c0.6,2.2,1.7,4.5,0,6.8c-0.8,1.1-1.6,1.5-2.4,0.1c-3.6-6.3-5.5-13-3.2-20.3c0.2-0.6,0.3-1.3,0.7-1.7c3.4-3.1,3-7.6,3.8-11.6
		c0.3-1.5,0.5-3,0.5-4.5c0.1-5.3,2.3-9.4,6.2-12.8c3.6-3.2,5.1-7.9,6.1-12.7C62.4,506.8,65.8,504.9,68.6,506.4z"/>
	<path d="M245.4,316.2c-3.2,5.2-6,10.7-9.6,15.6c-4.4,5.9-9.4,11.3-15.5,15.4c-8,5.4-16.4,6.2-25.1,2.5
		c-11.7-4.9-21.4-12.9-30.6-21.7c-8.6-8.3-15.9-17.6-22.5-27.7c-1-1.5-1.6-3.3-2.1-5.1c1.8,2.6,3.7,5.3,5.4,8
		c6.9,10.6,15.2,19.8,24.4,28.1c7.9,7.1,16.4,13.6,26.3,17.5c8,3.1,15.7,2.5,23-2.4c6.9-4.7,12.5-10.8,17.4-17.7
		c2.9-4.1,5.6-8.4,8.5-12.7C245.1,316,245.2,316.1,245.4,316.2z"/>
	<path d="M132.6,337.9c2.1,2.9,4.1,5.7,6.2,8.6c8.8,12.4,15.1,26.2,21,40.3c4.7,11,9,22.1,15.6,32.1c4.9,7.4,10.9,13.2,19.4,15.1
		c6.1,1.3,12.3,0.5,18.1-1.8c4.3-1.7,8.3-4.1,12-6c-0.2,0.2-0.8,0.8-1.5,1.4c-8.3,6.3-17.7,8.8-27.8,7.6c-5.1-0.6-9.5-3.2-13.5-6.6
		c-7.4-6.5-11.9-15.2-16-24.1c-4.6-10.2-9-20.4-13.4-30.6c-5.3-12.3-12.4-23.5-19.8-34.4c-0.2-0.3-0.5-0.7-0.7-1.1
		C132.3,338.1,132.4,338,132.6,337.9z"/>
	<path d="M247.1,266.3c-1.4,1.8-2.8,3.7-4.2,5.5c-8,10.5-12.4,22.6-15.2,35.6c-1,4.5-2.5,8.9-5.5,12.4c3.7-6.5,4.1-14,6.1-21
		c3.3-11.8,8.1-22.6,16.7-31.3c0.6-0.6,1.2-1.2,1.8-1.7C246.9,266,247,266.2,247.1,266.3z"/>
	<path d="M279.8,265.2c1.6-19.1,8.5-37.2,8.7-56.6c0.2,1,0.4,2.1,0.5,3.1c0.9,8-1.1,15.6-2.7,23.2c-2,9.7-4,19.3-6.1,29
		C280.1,264.4,279.9,264.8,279.8,265.2z"/>
	<path d="M195,311.2c2-0.3,4-0.5,5.9-1.1c7.6-2.3,13.1-7.6,17.1-14.5c4.2-7,7.9-14.3,12.2-21.4c-1.6,3.4-2.9,6.9-4.7,10.2
		c-3.3,6.2-5.9,12.9-10.9,17.9c-3.9,3.9-7.8,7.8-13.4,8.7c-2,0.3-4.1,0.4-6.2,0.5C195,311.5,195,311.3,195,311.2z"/>
	<path d="M73.5,547.5c-2.6,0-4.7,0.5-5.9-2.5c-0.5-1.2-1.8-2-2.9-2.9c-1.5-1.3-1.7-2.7-0.7-4.4c0.9-1.6,1.6-3.2,2.6-4.7
		c0.6-0.8,1.7-1.3,2-1.5c0.7,1.2,1.2,2.2,1.9,2.9c1,0.9,1,1.7,0.2,2.6c-1.5,1.8-1.3,3.5-0.2,5.4C71.5,544,72.4,545.6,73.5,547.5z
		 M70.3,535.8c-1-0.7-1.8-1.3-2.6-1.8c-0.9,1.5-1.7,2.8-2.4,4.2c-0.3,0.6-0.6,1.8-0.3,2.2c1.7,2.1,3.6,4,5.5,5.9
		c0,0,0.3-0.1,0.6-0.3C69.6,542.8,66.5,539.8,70.3,535.8z"/>
	<path d="M263.3,231.1c2.6-2.5,5.3-4.9,7.6-7.6c3.9-4.5,7.6-9.1,11.4-13.7c0.7-0.9,1.5-1.8,2.4-2.5c0.5-0.4,1.5-0.6,2-0.3
		c0.5,0.3,0.5,1.3,0.7,2c-0.2,0.1-0.4,0.1-0.6,0.2c-0.3-0.5-0.5-1-1.1-2C279.3,216.6,272.4,225,263.3,231.1z"/>
	<path d="M151.1,278.1c5.1,12.3,13.6,21.4,23.5,29.2C167.5,305.6,152.5,287.3,151.1,278.1z"/>
	<path d="M36.9,519c-1.3-1.4-2.1-2.2-2.8-3.2c-0.3-0.5-0.5-1.4-0.3-1.9c0.7-1.9,1.8-3.6,2.5-5.5c0.6-1.6,0.8-3.4,1.2-5.4
		c1.1-0.6,2.4-1.4,3.8-2.1c0.2,0.1,0.5,0.3,0.7,0.4c-0.8,2.3-1.6,4.6-2.3,6.9c-0.7,2.4-1.4,4.9-2,7.4
		C37.4,516.6,37.2,517.5,36.9,519z M36.1,516.5c1.5-4.6,2.9-9,4.4-13.5c-0.2-0.1-0.3-0.3-0.5-0.4c-0.6,0.5-1.9,1.1-1.8,1.5
		c0.3,3.5-1.7,6-3.1,8.7C34.1,514.6,34.5,515.8,36.1,516.5z"/>
	<path d="M171.7,124c-1.3-4.3-3.9-7.6-7.8-9.5c-3.9-1.9-7.8-1.9-11.2,1c-2.6,2.2-4.8,4.9-7.2,7.4c-0.5,0.6-1,1.2-1.6,1.7
		c3-7.2,10.7-13.4,16.5-12.3C166.3,113.5,170.7,117.7,171.7,124z"/>
	<path d="M61.3,553.2c-1.3,3.6,1,5.2,2.1,7.3c0.8,1.5,0.8,2.7-0.5,3.4c-1.2,0.6-2.5,2.1-4-0.2C57,560.7,57.4,557.1,61.3,553.2z
		 M59.7,557c-0.9,2.5-1.7,4.4,0.3,5.9c0.5,0.4,1.5,0.5,1.9,0.2c0.4-0.3,0.7-1.4,0.4-1.9C61.7,559.8,60.8,558.6,59.7,557z"/>
	<path d="M51.6,392.4c1.1-0.7,2.3-1.3,3.4-2.1c1-0.7,1.8-1.6,2.7-2.4c0.6-0.6,1.2-1.2,1.8-1.7c0.6,0.7,1.5,1.3,1.7,2.1
		c0.2,0.8-0.1,2.4-0.6,2.6c-2.1,0.9-4.3,1.3-6.5,1.9c-0.6,0.2-1.3,0.3-2,0.4C51.9,392.9,51.7,392.6,51.6,392.4z M57.4,390.8
		c3.2-0.7,3.5-1.2,1.9-3.4C58.7,388.4,58.1,389.5,57.4,390.8z"/>
	<path d="M22.6,502c1.8-2.4,3.4-4.6,5-6.7c0.3-0.4,1.1-1,1.3-0.9c0.6,0.5,1.2,1.1,1.5,1.9c0.1,0.3-0.4,1-0.8,1.4
		c-1.1,1.1-2.5,2-3.2,3.3C24.6,503.9,24.5,504,22.6,502z"/>
	<path d="M42.8,397.9c0.9-3.8,4.6-6.8,6.8-5.8C48,394.8,46.9,398.1,42.8,397.9z"/>
	<path d="M254.8,367.5c0.9-6.6,1.8-12.7,2.6-18.8C258.2,355,257,361.1,254.8,367.5z"/>
	<path d="M97.4,366.4c-2-1.8-2.4-5-0.7-8.2c0.9,1.1,1.8,2.2,2.3,2.9c-0.2,2.7-0.3,5.1-0.5,7.5c-0.1,0.1-0.3,0.1-0.4,0.2
		C97.9,368.1,97.6,367.2,97.4,366.4c1.3-2.6,1-5.1-1.3-6.4C96.5,362.4,97,364.4,97.4,366.4z"/>
	<path d="M89.9,329.2c-0.1,0.5-0.1,1.1-0.3,1.6c-0.2,0.4-0.6,1-1,1c-0.4,0-0.9-0.5-1.1-0.9c-0.3-0.9-0.6-1.9-0.4-2.8
		c0.1-0.7,0.9-1.4,1.4-2.1c0.4,0.6,0.9,1.2,1.2,1.9C90,328.4,89.9,328.8,89.9,329.2z"/>
	<path d="M31.5,489.7c0.2-1.6,0.2-2.8,0.5-3.9c0.1-0.5,1-0.8,1.6-0.9c0.3-0.1,1.1,0.5,1.1,0.8c0,0.5-0.3,1.2-0.7,1.6
		C33.3,488,32.6,488.6,31.5,489.7z"/>
	<path d="M32.4,527.7c0.2-1.6,0.5-3.3,0.7-4.7c1.6,1.1,1.6,1.1-1.7,6.7c-0.1-1.4-0.2-2.8-0.4-4.3c0.1,0,0.2,0,0.2,0
		c0.1,0.7,0.2,1.5,0.3,2.2C31.8,527.7,32.1,527.7,32.4,527.7z"/>
	<path d="M129.7,140.7c2.5-2.3,4.6-4.3,7.2-6.6C135.1,137.4,132.9,139.3,129.7,140.7z"/>
	<path d="M254.2,206.2c-1.1,1.8-2.1,3.6-3.2,5.4c-0.2-0.1-0.4-0.2-0.6-0.4c1-1.8,2.1-3.6,3.1-5.4C253.8,205.9,254,206,254.2,206.2z"
		/>
	<path d="M428.8,137.9c-0.1,1.1-0.2,2.2-0.5,3.3c-1.3,5.3-5.6,6.7-9.6,3.1c-2.5-2.2-3.2-5.1-2.5-8.3c0.7-3,1.9-5.4,5.1-6.2
		c3.4-0.8,6.8,2.1,7.3,6.4c0.1,0.5,0,1.1,0,1.7C428.8,137.9,428.8,137.9,428.8,137.9z M427.2,137.9c0.2-0.1,0.3-0.2,0.5-0.2
		c-0.7-1.8-1.2-3.9-2.3-5.5c-1.5-2.2-5-2.2-6.4,0.1c-1.4,2.3-2,5-1.3,7.7c0.7,2.7,3.6,5.3,5.6,5.1c2-0.2,3.8-3.1,3.9-6.3
		C427.2,138.5,427.2,138.2,427.2,137.9z"/>
	<path d="M419.9,164.3c-0.8-1.2-1.6-2.4-2.3-3.7c-3.3-6.2-8-10.6-14.4-12.9c-0.9-0.3-1.9-0.8-2.5-1.4c-0.6-0.6-0.8-1.6-0.9-2.7
		c0.9,2.7,3.2,3,5.2,3.8c7.1,2.8,11.9,8,14.9,15.3c0.2,0.5,0.3,1,0.4,1.5C420.1,164.2,420,164.2,419.9,164.3z"/>
	<path class="st0" d="M335.5,411.7c0.8,2.9,1.7,5.9,2.5,8.8c-0.1,0.1-0.3,0.3-0.4,0.4c-2.1-3-4.2-5.9-6.2-9
		c-0.3-0.4,0.2-1.5,0.6-2.1c8-15.4,16.3-30.7,24.1-46.2c6.2-12.2,11.8-24.8,17.7-37.2c0.3-0.5,0.6-1.1,1-1.9c0,6.8,0,13.1,0,19.5
		c0.1,15.6,1.5,31,4.5,46.3c0.9,4.6,2.2,9.1,3.4,13.5c0.4,1.6,1.3,3,2.2,4.4c1.6,2.6,3.5,2.8,5.2,0.2c2.6-4,4.8-8.4,7-12.7
		c1.1-2.1,1.6-4.6,2.4-7c0.2,0.3,0.3,0.4,0.3,0.4c-2.8,8.3-2.1,17.1-3.2,25.6c-1.1,8.9-2.9,17.6-6,26c-2.8,7.7-5,15.7-7.3,23.2
		c-1.2-8.7-1.7-17.8,0.7-27.1c-3.5,2.6-5.7,6.1-7.6,10.1c0.1-1.6,0.2-3.1,0.4-4.7c0.2-1.6,0.4-3.3,0.7-4.9c-0.2-0.1-0.4-0.1-0.6-0.2
		c-0.5,2.1-1.4,4.1-1.6,6.2c-0.4,4.7-0.7,9.4-0.5,14c0.3,7.3-1,14-4.1,20.4c-1.1,2.3-1.9,4.8-3.1,7.6c-1.3-4-2.5-7.7-3.6-11.5
		c-2.7-9.5-3.5-19.2-2.8-29c0.5-7.7-1.3-14.6-5.1-21c-0.2-0.4-0.6-0.6-1.2-1.1c0.9,7.3,3.1,14.1,1.2,21.1c-1.2,4.6-2.9,9.1-4.6,13.6
		c-1.6-6.2-3.2-12.4-0.8-18.6c3-8,1.5-13.1-5.4-19.4c-2.6-2.4-5.1-4.9-7.7-7.3c-0.4-0.4-1-0.7-1.5-1
		C336,411.4,335.8,411.5,335.5,411.7z"/>
	<path class="st0" d="M300.5,412.8c-3-4.6-5.5-8.7-8.3-12.6c-10.3-13.8-18.1-29.1-25.3-44.8c-1.2-2.6-2.4-5.2-1.9-8.6
		c4.2,5.7,7.8,11.6,13.7,15.3c-4.3-5.4-6.8-11.3-5.7-18.8c3,1.7,4.9,4,5.8,7c0.9,3,1.7,6.2,1.8,9.3c0.1,4.6,1.9,8.2,4.5,11.6
		c0.9,1.2,1.9,2.2,2.9,3.3c0.2-0.2,0.4-0.3,0.6-0.5c-0.3-0.6-0.6-1.1-0.9-1.7c-1-1.9-2.2-3.8-3.1-5.8c-1-2.3-0.9-4.5,0.2-6.8
		c2.2-4.4,2.4-8.6-1.1-12.5c1.4-1.2,2.3-1.4,3.1,0c0.9,1.5,1.9,3.5,1.8,5.2c-0.4,6.9,3.4,11.2,7.6,15.4c0.4,0.4,1,0.8,1.3,1.3
		c2.4,5.6,6.9,9.3,10.7,13.7c1.6,1.9,3.1,3.9,4.5,5.9c0.4,0.5,0.5,1.6,0.3,2.1C308.9,397.8,304.9,405,300.5,412.8z"/>
	<path class="st0" d="M107.8,218.9c3.2-1.2,6-1.3,9.1,0.7c4.1,2.6,8.6,2.3,12.7-0.7c2.8-2,4.4-8.2,3.3-12.4c-0.1-0.5-0.3-1-0.5-1.5
		c2.6-0.1,4.4,1.2,4.9,4.1c0.4,2.8,0.9,5.4,2.7,7.8c0.8,1.1,0.4,3.3,0.5,5c0.1,1.2,0.2,2.5,0.2,3.7c0.2,0,0.4,0,0.6,0.1
		c0.3-1.1,0.6-2.3,0.8-3.4c2.5,0.2,4.6,3.3,4.1,6.1c-0.5,3.3-1.8,5.9-4.8,7.8c-2.3,1.4-3.9,4-5.8,6c-0.5,0.6-1,1.1-1.6,1.7
		c-0.2-0.8-0.5-1.5-0.7-2.3c-0.4-2.1-0.7-4.3-1.1-6.6c-0.9,0.4-1.3,0.6-1.9,0.9c-0.6-2.1-0.5-3.7,1.4-4.8c2-1.2,2.5-2.9,2.1-5.2
		c-0.3-1.6-0.2-3.3-0.3-4.9c-0.2-0.1-0.4-0.2-0.6-0.3c-0.3,0.6-0.6,1.2-0.9,1.8c-0.4,1.1-0.5,2.6-1.2,3.1c-2.2,1.5-4.6,3.1-7.1,3.6
		c-3.2,0.6-6.6,0.6-9.7-0.2C109.5,227.7,107.5,224,107.8,218.9z"/>
	<path class="st0" d="M415.6,222c-0.7-4.5-4.7-5.3-7.2-7.8c-1.4-1.4-2.9-2.8-4.4-4c-1.7-1.5-3.6-2.8-5.4-4.2
		c-3.4-2.6-3.4-3.9,0.1-6.7c0.2,0.5,0.3,0.9,0.7,1.9c0.5-0.9,0.9-1.4,1.1-2.1c0.6-2.6,1-5.3,1.6-7.9c0.5-2.5,2.4-3.3,4.4-1.7
		c1.2,0.9,2.5,1.9,3.2,3.2c1.9,3.5,4.8,5.5,8.3,6.9c2.2,0.9,4.2,2,5.3,4.5c0.9,2,1,3.9-0.4,5.8c-1.2,1.7-2.3,3.5-3.6,5.6
		c0.8,0.1,1.2,0.2,1.6,0.2C421.1,219.6,417.8,220,415.6,222z"/>
	<path class="st0" d="M387.8,220.8c0.6-1.2,1.5-2.8,2.7-4.9c0.5,1.2,0.7,1.7,1,2.3c0.2,0,0.4,0,0.6,0c0.2-1.8,0.5-3.6,0.4-5.4
		c0-2.1,0.1-4,2.3-4.7c2.1-0.7,4.2-0.6,5.9,0.8c2.6,2.2,4.8,5.1,7.6,6.9c3.3,2.2,5.4,5.2,7.1,8.8c1.4,3,0.9,6-1.9,7.8
		c0.2-0.7,0.3-1.2,0.4-2c-3,1-3,3.6-3.3,6C403.4,231,395.9,226.1,387.8,220.8z"/>
	<path class="st0" d="M99.7,231.6c0.5,0.2,1,0.4,1.7,0.7c-2.4,0.8-3.4,0.2-3.8-2.2c-0.4-2.7-0.3-5.4-1.1-8c-1-3.3-2.5-6.5-3.9-9.7
		c-0.4-1.1-1.2-2.1-1.5-3.2c-1.3-4.5-0.7-5.7,3.6-6.9c2.4-0.7,4.9-1.4,7.4-1.8c0.8-0.1,1.9,0.4,2.5,1.1c1.1,1.2,2,2.6,2.7,4
		c0.8,1.7,1,3.4-0.6,5c-0.6,0.6-0.9,1.9-0.8,2.8c0.4,3.7,0.7,7.4,1.5,11c0.8,4.1,0.6,5.2-2.4,6.5c-0.6,0.2-1.3,0.2-1.9,0.2
		c-1.1,0-2.3,0-3.4,0C99.7,231.3,99.7,231.5,99.7,231.6z"/>
	<path class="st0" d="M384.1,229.8c0.2,0.9,0.4,1.6,0.5,2.3c0.2,0,0.4,0,0.7,0.1c0.3-1.7,0.6-3.4,0.8-5.1c0.4-3.1,3-4.4,5.5-2.6
		c1.5,1,2.8,2.4,4.3,3.4c2,1.4,4.1,2.5,6.2,3.8c1.1,0.7,2.2,1.2,3.2,2.1c2.7,2.6,2.9,5.3,0.8,8.6c-0.2,0.3-0.7,0.5-1.4,1.1
		c0.2-1.2,0.4-2,0.5-2.8c-0.2-0.1-0.3-0.3-0.5-0.4c-0.5,0.9-1.3,1.7-1.6,2.6c-0.4,1.5-0.2,3.2-0.6,4.7c-0.2,0.9-0.8,2.2-1.4,2.3
		c-1.1,0.2-3.1-0.1-3.4-0.7c-1.9-5.5-6.5-6.7-10.9-8.6c-4.1-1.7-5.7-6.1-3.8-9.7C383.5,230.5,383.8,230.2,384.1,229.8z M393.5,238.3
		c-2.2-1.8-4.7-3.7-7.2-5.7C387.5,235.3,390.7,237.7,393.5,238.3z"/>
	<path class="st0" d="M410.9,186.5c0.5-1.9,0.9-3.2,1.3-4.6c0.7-2.1,2.2-2.6,3.9-1.2c1.1,0.9,2,2.2,3.3,2.9c2.5,1.5,5.1,2.8,7.8,3.9
		c2.2,0.9,2.8,2.7,1.1,4.5c-1.1,1.2-2.3,2.3-3.3,3.5c-0.3,0.3-0.1,1-0.2,1.6c-0.2,1.4-0.5,2.9-0.8,4.4c-3.5-1.9-6.7-3.5-9.8-5.3
		c-0.8-0.4-1.4-1.1-2-1.8c-1.5-1.8-2.9-3.8-4.5-5.6c-0.9-1.1-1.1-2.1,0.2-2.7C408.6,185.8,409.6,183.6,410.9,186.5z"/>
	<path class="st0" d="M431.6,191.7c-0.4-3.9-2.7-4.8-5.3-5.9c-2.9-1.2-5.6-3-8-5c-2.5-2.2-4.7-2.2-7.5-0.6c1.1-4.2,2.2-8.2,3.3-12.3
		c1.9,2.9,3.6,5.6,5.5,8.3c0.7,1.1,1.6,2.1,2.6,2.9c1.8,1.5,2.9,1,4.2-0.9c1.4-2,2.9-3.9,4.6-5.6c1.2-1.2,2.6-0.9,3.8,0.3
		c0.9,0.8,1.9,1.4,3.1,2.2C435.9,180.2,433.9,185.6,431.6,191.7z"/>
	<path class="st0" d="M90.6,212.4c2.3,2.2,3.4,4.9,4,7.9c0.5,2.5,0.8,5.1,1.2,7.7c0.3,1.9,0.8,3.9,1.2,6.1c-0.6,0.2-1.6,0.6-2.6,1.1
		c0.1,0.6,0.4,1.2,0.3,1.7c0,0.3-0.9,0.7-1,0.6c-0.4-0.4-0.7-0.9-0.9-1.5c-1.2-3.8-3.6-6.7-6.5-9.2c-2.1-1.7-3.5-3.7-3.3-6.6
		c0-0.6,0.3-1.4,0.7-1.9c1.8-1.7,3.7-3.4,5.5-5C89.7,213.1,90.2,212.8,90.6,212.4z"/>
	<path class="st0" d="M132.9,227.1c-0.7,1-1.3,2-2,2.9c-0.6,0.8-1.6,1.5-2,2.4c-0.9,1.9-1.4,4.1-2.6,5.8c-0.9,1.2-2.5,2.4-3.9,2.6
		c-5.9,0.9-9-0.1-10.9-8.6c-0.3-1.1-0.5-2.3-0.8-3.6c7.8,4.4,14.7,2.2,21.5-2.2C132.4,226.6,132.6,226.8,132.9,227.1z"/>
	<path class="st0" d="M99.9,234.8c3.5-1.8,6.4-3.3,9.6-4.8c0.2,0.8,0.3,1.9,0.7,2.8c1.1,2.5,2.4,4.9,3.4,7.4
		c0.7,1.8,1.5,3.7,1.7,5.6c0.1,1.3-0.8,2.3-2.5,1.2c-1-0.6-2.2-0.8-3.3-1.1c-0.1,0.2-0.1,0.4-0.2,0.6c0.4,0.3,0.7,0.6,1.5,1.1
		c-0.9,0.7-1.6,1.4-2.4,1.8c-0.3,0.1-1.2-0.6-1.4-1.2c-0.6-1.7-0.8-3.6-1.5-5.2c-0.6-1.4-1.7-2.7-2.6-4
		C101.9,237.7,100.9,236.4,99.9,234.8z"/>
	<path class="st0" d="M129.6,206.7c-0.5,0.8-0.7,1.2-0.8,1.5c-0.9,3.7-0.9,3.8-4.5,3.7c-2.2-0.1-4.3-0.2-6.5-0.5
		c-0.9-0.2-2.3-0.8-2.6-1.6c-0.4-1.1,0-2.5,0.3-3.7c0.1-0.5,0.7-0.9,1.1-1.3c-0.1-0.2-0.3-0.3-0.4-0.5c-1,1-2.1,1.9-3,2.7
		c0-3.8,2.1-6,5.8-5.7c1.5,0.1,3,0,4.5-0.2c4.9-0.7,7.9,1.9,7.9,7.5c-2.9-4.9-7-6.4-12.1-4.5c1.7,0.1,3.4,0,5.1,0.4
		C126.1,204.9,127.7,205.9,129.6,206.7z"/>
	<path class="st0" d="M424.1,209.7c2,1.7,3.5,2.9,5,4.2c1.9,1.6,2.2,5,0.6,7c-0.4,0.5-0.9,1-1.5,1.7c-0.2-0.7-0.3-1.3-0.5-2.2
		c-1.4,2.9-2.7,5.6-4,8.2c0.1,0.1,0.2,0.1,0.3,0.2c0.8-1.3,1.6-2.6,2.4-4c0.2,0.1,0.3,0.1,0.5,0.2c-0.6,2.4-1.2,4.7-2,7.5
		c-3.1-3.4-5.7-6.3-8.8-9.7c0.7-0.4,1.3-0.9,2-1.3c1.2-0.6,3-0.8,3.5-1.8c0.9-1.9,0.9-4.2,1.4-6.3
		C423.2,212.3,423.6,211.1,424.1,209.7z"/>
	<path class="st0" d="M387.4,203.2c1.1-1.1,2.1-2.1,3-3.1c1.4-1.5,2.3-0.9,3.1,0.7c1.2,2.6,0.8,5.2-1,7.6c-0.7,0.9-0.9,2.1-1.4,3.2
		c-0.7,1.6-1.4,3.2-2.2,4.8c-0.8,1.7-1.7,3.4-2.5,5.1c-0.3,0.5-0.4,1.1-0.6,1.7c-0.2-0.1-0.4-0.1-0.6-0.2c0.1-0.7,0.2-1.5,0.2-2.2
		c-0.1-1.9-0.3-3.9-0.4-5.8c-0.2-4.3-0.6-8.6-0.5-12.9c0-1.9,1.5-2.5,2.5-1.3C387.4,201.1,387.3,202,387.4,203.2z"/>
	<path class="st0" d="M123.5,255.1c-0.5-1.2-1.3-2.6-1.7-4.1c-0.5-1.6,0.3-3.4-1.5-4.9c-0.9-0.8,0-2.3,1.4-2.9
		c4.4-1.9,4.3-2,6.7-5.8c1.9,0.1,2.5,1.4,2.7,3.2c0.2,1.9,0.4,3.8,2.7,4.3c0.3,0.1,0.8,1.3,0.6,1.4c-0.5,0.7-1.2,1.3-2,1.6
		c-1.4,0.6-3.2,0.5-4.3,1.5C126.5,250.9,125.3,252.9,123.5,255.1z"/>
	<path class="st0" d="M94.4,239.8c-1.4,1.4-2.8,2.9-4.3,4.3c0.4,0.1,0.9,0.2,1.6,0.4c-0.3,0.5-0.4,1-0.7,1.4c-0.4,0.4-1,1-1.4,0.9
		c-0.4,0-0.7-0.9-1-1.4c-0.1-0.1-0.1-0.3-0.1-0.5c-0.2-3.8-2.1-6.2-5.4-7.7c-2.6-1.2-3.3-4-1.8-6.5c1.7-3,4.1-3.3,6.1-0.6
		c1.5,2.1,2.7,4.5,4,6.8c0.6,1.1,1,2.3,1.5,3.5C93.5,240.2,93.9,240,94.4,239.8z"/>
	<path class="st0" d="M409.3,237.9c1.1,2,1.9,3.6,2.8,5.2c0.9,1.6,1.9,3,3,4.6c-4.3,1.4-3.9,7.1-7.9,9.2c0.2-0.8,0.4-1.6,0.7-2.7
		c-0.6,0.5-1,0.9-1.6,1.4c-1.1-1.8-2.2-3.6-3.2-5.3c0.3-1.2,0.6-2.6,1-3.8c0.3-0.8,0.6-1.9,1.2-2.1c2.2-1,3-2.9,3.4-5.2
		C408.8,239,409,238.6,409.3,237.9z"/>
	<path class="st0" d="M130.5,214.3c-2.9,7.5-10.8,7.1-14.8,3c-2.1-2.2-3.2-4.8-3-8c0.3,0,0.5,0,0.5,0c0.8,4.1,4,3.2,6.5,3.4
		c2,0.2,4-0.1,6-0.1c0.6,0,1.1,0.3,1.7,0.5C128.5,213.5,129.5,213.9,130.5,214.3z"/>
	<path class="st0" d="M390,197.7c0-0.2,0.2-0.9,0.3-1.7c-0.1-0.1-0.3-0.1-0.4-0.2c-0.4,0.6-0.7,1.2-1.2,1.8
		c-0.4,0.5-0.9,0.9-1.4,1.4c0-0.7-0.1-1.4-0.1-2c0-0.3,0.1-0.6-0.1-1c-0.4,0.6-0.8,1.3-1,1.7c1.5-5.9,3.1-12.1,4.8-18.5
		c2,2.1,2.6,4.7,2.9,7.3c0.5,3.9,0.8,7.8,1.2,11.8c0,0.3,0,0.6,0,0.7C393.3,198.5,391.8,198.1,390,197.7z"/>
	<path class="st0" d="M121.9,259.8c-2.6,0.4-3.3,0-4.2-2.9c-0.1-0.3-0.5-0.6-0.8-0.7c-1.6-0.6-3.2-1.5-4.9-1.7
		c-2.2-0.3-2.8-1.7-3.4-4c2-0.5,3.8-0.9,5.5-1.5c0.8-0.3,1.5-1,2.2-1.5C119.2,250.2,122,256.4,121.9,259.8z"/>
	<path class="st0" d="M95.2,238.7c0.6-0.6,1.1-1.2,1.7-1.8c0.2,0.6,0.3,1,0.5,1.8c0.4-1.2,0.7-2.1,1.2-3.4c2.2,4.2,6.4,6.7,6.3,11.9
		c0,2-0.9,3.8-2.3,3.6c-1.5-0.2-3.3-0.3-3.6-2.7C98.1,242.9,98,242.9,95.2,238.7z"/>
	<path class="st0" d="M430.4,194.7c2.5,2.8,3,6.3,1.9,9.9c-0.8,2.7-0.1,5.8-1.6,8.3c-0.3,0-0.5-0.1-0.8-0.1
		c-0.1-1.9-0.2-3.8-0.4-6.2c-0.3,1.5-0.5,2.5-0.8,3.4c-0.1,0.4-0.6,0.7-0.9,1.1c-0.2-0.4-0.7-0.9-0.6-1.3c0.6-3.9,1.3-7.9,2-11.8
		C429.5,196.9,430,195.8,430.4,194.7z"/>
	<path class="st0" d="M413.1,241.7c-0.8-2.5,0.3-7.3,1.9-8.3c2.2-1.3,2.8-3.3,2.7-5.7c5.1,1.9,6.1,6.8,2.6,11.3
		c-0.5-1.8-0.9-3.6-1.5-5.6c-1.4,3-2.8,6.1-4.3,9.2c-0.2-0.1-0.4-0.2-0.6-0.3c1.3-3,2.5-6.1,3.8-9.1c-0.1-0.1-0.2-0.1-0.3-0.2
		c-0.6,1.4-1.2,2.8-1.9,4.2C414.8,238.5,414,239.9,413.1,241.7z"/>
	<path class="st0" d="M94.2,252.1c0.5,0,0.9,0,1.2,0.1c0.1-0.2,0.1-0.5,0.2-0.7c-1.9-0.8-3.8-1.5-5.5-2.2c1.6-2.4,3-4.4,4.5-6.6
		c0.2,0,0.9,0,1.2,0c1,3,2.4,5.9,3,9c0.4,2.1-1.7,2.9-3.5,4.1C94.8,254.3,94.5,253.3,94.2,252.1z"/>
	<path class="st0" d="M102.3,252.7c0.4-0.4,0.5-0.6,0.6-0.6c1.3-0.6,2.7-1.7,3.7-1.4c0.9,0.2,1.2,2.3,2,3.4c0.4,0.6,1.2,0.9,1.8,1.2
		c0.5,0.3,1.2,0.3,1.7,0.5c1.3,0.6,2.6,3.8,1.8,4c-1.2,0.4-2.8,0.5-3.9-0.1c-2.1-1-4-2.5-5.8-4C103.5,255,103,253.8,102.3,252.7z"/>
	<path class="st0" d="M107.7,202.2c1.9,0.4,3.4,0.8,5.1,1.2c-0.5,1.3-0.9,2.1-1.2,3c-0.8,2.4-1,4.8-0.5,7.4c0.6,2.8,0.1,3.2-2.6,3
		c-0.4,0-0.8-0.2-1.2-0.3c-0.2-2.2-0.5-4.2,1-6.3c0.8-1.1,0.1-3.5,0-5.2C108.3,204.2,108,203.5,107.7,202.2z"/>
	<path class="st0" d="M101.3,260.5c0.9,0.2,1.6,0.4,2.3,0.6c0.1-0.3,0.2-0.5,0.2-0.8c-1.5-0.6-3.1-1.1-4.6-1.7
		c-0.7-0.3-1.4-0.6-2.1-0.9c0.3-0.7,0.6-1.5,1-2.1c0.8-1.1,1.8-2.1,2.6-2.9c1.4,1.7,3.1,3.2,4.1,5.1c0.9,1.8,1.1,4,1.5,6
		C103.2,264.6,102.2,263.9,101.3,260.5z"/>
	<path class="st0" d="M41.1,464.4c-1.6,5.1-4.6,8.2-8.2,11.3C32.7,469.6,37.4,467.9,41.1,464.4z"/>
	<path class="st0" d="M415.2,245.8c-0.9-1.5,0.6-5.9,2.9-9.2C418.7,238.4,417.2,243.4,415.2,245.8z"/>
	<path class="st0" d="M130.5,214.3c-1-0.4-2-0.8-3-1.2c0.8-1.1,1.7-2.1,2.6-3.3C132,210.3,132.3,212,130.5,214.3z"/>
	<path class="st0" d="M119.6,242.1c-0.6,1.6-1,2.9-1.8,4.9c-0.7-2-1.1-3.5-1.7-5.2C117.4,241.9,118.4,242,119.6,242.1z"/>
	<path class="st0" d="M433.3,199.7c1.8,2.6,1.7,3.8-0.3,6C433.1,203.9,433.2,202.1,433.3,199.7z"/>
	<path class="st0" d="M163.7,191.7c-1.4,0.4-2.8,0.7-4.1,1.3c-4.8,2.4-8.6-0.4-8.1-6.1c0.2-2-0.3-4.5,2.5-5.6
		c0.5-0.2,0.7-2.2,0.6-3.3c-0.2-2.2-0.8-4.3-1.3-6.8c0.8,0.1,1.6,0.2,2.3,0.4c0.1-0.2,0.2-0.3,0.3-0.5c-0.6-0.5-1.2-1.1-1.9-1.3
		c-0.7-0.3-1.5,0-2.2-0.3c-1.5-0.6-3.6-1-4.3-2.2c-1-1.7,1.5-6.2,3.3-7.2c0.8-0.4,1.6-0.8,2.4-1.5c-0.8,0-1.6,0-2.6,0
		c-0.9-3.5-1.9-6.8-2.6-10.3c-0.1-0.7,1-2.1,1.8-2.4c2.8-0.9,5.7-1.2,8.5-2.1c4.7-1.5,9.5-3,14-5c3.5-1.6,5.8-4.9,7.5-8.5
		c0.4-0.8,0.8-1.7,1.4-3.1c3.8,3.5,7.4,6.7,11,10c2,1.9,4,3.8,6.2,5.5c4.4,3.4,8,2.2,11.6-1c1.8-1.6,3.5-3.5,5.3-5.2
		c1.4-1.3,2.4-0.8,3.2,0.8c0.5,1.1,0.8,2.4,1.4,3.5c0.8,1.3,1.6,2.8,2.7,3.7c1.2,0.9,1.7,1.8,1.4,3.3c-0.3,1.5-0.4,3.2-0.7,4.7
		c-0.5,2-1.3,3.9-1.9,5.9c-0.9,0-1.8,0-2.6,0c-0.1,0.1-0.1,0.3-0.2,0.4c0.8,0.4,1.7,0.7,2.4,1.2c0.9,0.6,1.8,1.2,2.4,2.1
		c2.8,4.3,2,6.3-2.8,7.2c-1,0.2-2,0.1-2.9,0.4c-0.7,0.2-1.2,0.9-1.5,1.9c0.7-0.1,1.5-0.3,2.5-0.5c-0.4,2-0.9,3.8-1.1,5.6
		c-0.2,1.9-1.2,4,1.6,5.1c1.5,0.6,1.7,6.6,0.7,8.6c-2.2,4.4-4.3,4.9-7.5,2.6c-1.2-0.8-2.7-0.9-4.1-1.4c-0.1,0.3-0.2,0.6-0.3,0.8
		c1.1,0.5,2.1,0.9,3.2,1.4c1.1,0.5,2.1,1.2,3.3,1.9c-0.4,0.9-0.8,1.7-1.2,2.4c-4,7.1-5.1,14.7-2.8,22.4c2.4,8,0.7,11.6-6.2,15.2
		c-4.5,2.4-8.3,5.5-12.2,8.7c-5.1,4.2-10.7,3.5-14-1.3c-3.1-4.4-7.9-5.7-12.2-8.1c-4.9-2.8-6.5-6.7-4.8-12.3
		c2.4-7.8,1.9-15.1-2-22.2c-0.1-0.1-0.1-0.3-0.2-0.4c-1.8-3.9-2.3-4.4,2.6-6.4c0.9-0.4,1.7-0.8,2.5-1.2
		C163.8,192.2,163.7,192,163.7,191.7z M174.7,205c0.2-0.3,0.4-0.6,0.6-0.9c-2.2-1.8-4.2-4-6.7-5.2c-3.1-1.5-5.1,0.7-4.6,4.3
		c0.7,4.7,1,9.6,1.8,14.3c0.4,2.2,1.3,4.5,2.5,6.4c1.2,1.9,3,3.6,4.8,4.9c1.8,1.3,3,3.9,5.7,3.1c0.2,0,0.4,0.4,0.7,0.5
		c1.6,0.8,3.3,2.5,4.7,2.3c2.8-0.3,6.1,0.5,8.3-2.5c0.1-0.2,0.4-0.3,0.5-0.3c3.2,0.1,4.9-2.3,6.8-4.3c1-1.1,1.9-2.4,3.1-3.1
		c3.9-2.3,4.3-6.5,3.6-10.1c-0.6-3.1-1.3-6.2,0.4-9.2c0.5-0.8,0.3-2,0.5-3c0.4-3.3-1.1-4.8-3.9-3.4c-2.5,1.2-4.6,3.4-7,5.2
		c0.2,0.3,0.4,0.7,0.7,1c1.9-1.5,3.8-2.9,5.7-4.3c-1.2,2.5-2.3,4.9-3.7,7.8c-2.6,1.7-5.9,3.7-8.8,5.6c-1.3,0.2-2.3,0.4-3.5,0.7
		c0.1,0.2,0-0.1-0.3-0.7c-0.1,0.8-0.2,1.4-0.3,2.1c-1.3-1.9-2.6-2.9-4.6-1.5c-0.3-0.4-0.4-0.9-0.7-1.1c-2-1.2-4-2.4-6-3.7
		c-1-0.6-2.4-1.2-2.9-2.2c-0.9-1.9-1.3-4-2-6.1C171.5,202.8,173.1,203.9,174.7,205z M200.7,189.5c0.1-0.2,0.1-0.4,0.2-0.5
		c-1.2-0.7-2.4-1.4-4-2.4c0.8-0.4,0.9-0.4,0.9-0.4c0.5,0.1,1,0.2,1.5,0.3c4.2,0.8,8.2,0.2,11.7-2.6c2.1-1.8,2.4-3.5,1.1-6
		c-0.2-0.5-0.7-1.2-0.5-1.4c2-2.5,1.4-5.4,1.2-8.5c-0.8,0.1-1.7,0.1-2.4,0.4c-3.4,1.7-6.9,3.3-9.9,5.5c-3.5,2.6-7,4.6-11.4,4
		c-0.7-0.1-1.4-0.1-2.5-0.2c4.1,4.6,4.6,11.3,10,14.5c0.5-0.3,1.1-0.6,1.2-0.7c-1.5-1.7-3-3.4-4.6-5.2c0.1-0.1,0.2-0.1,0.3-0.2
		C196,187.2,198.3,188.3,200.7,189.5z M184.6,177.4c-5.8,1.6-10.2-0.9-14.6-4.3c-2.7-2.1-5.9-3.3-9-4.8c-0.7-0.3-1.6-0.2-2.2-0.3
		c-0.1,1.1-0.3,1.9-0.2,2.7c0.2,1.5,0.2,3.2,0.8,4.5c0.5,1.1,0.7,1.8,0,3c-1.3,2.3-0.9,4.2,1.2,5.8c2.7,2.1,5.8,3.3,9.3,2.8
		c1.9-0.3,3.8-1,5.7-1.5c0.1,0.1,0.1,0.3,0.2,0.4c-1.4,0.9-2.7,1.9-4.1,2.8c0,0.1,0.1,0.2,0.1,0.3c1.8-0.9,3.7-1.7,6.1-2.8
		c-1.3,1.7-2.3,3-3.2,4.3c-0.3,0.4-0.2,1.1-0.3,1.6c0.5-0.1,1.2-0.1,1.5-0.5c1.5-1.8,3-3.5,4.2-5.5
		C181.7,183.3,183,180.6,184.6,177.4z M178.3,200.3c-0.9-0.5-1.4-0.8-2-1.1c-0.1,0.2-0.2,0.4-0.3,0.5c1.6,1.5,3.3,3,5.1,4.6
		c-1,0.5-1.8,1-3,1.7c2.9-0.1,5-0.5,6.3-2.8c0.2-0.3,0.8-0.7,0.9-0.6c1,0.5,2,1.1,3,1.7c1.2,0.8,2.4,1.5,3.6,2.3
		c0.1-0.2,0.2-0.3,0.3-0.5c-1.5-1.7-1.4-1.6,0.3-3.5c0.6-0.7,1.1-2.1,0.9-2.8c-1.3-3.7-2.7-7.4-4.3-10.9c-0.8-1.9-2.1-3.6-2.9-5
		c-0.1,0.3-0.2,1.4-0.7,2.1c-1,1.7-2.5,3.1-3.3,4.8C180.6,193.9,179.6,197,178.3,200.3z M166.9,162.5c2.7,2.1,5.3,4.1,8.8,4.2
		c2.7,0.1,5,1.3,6.6,3.5c0.9,1.2,1.2,2.8,1.8,4.2c0.4-0.8,0.6-1.7,0.4-2.4c-0.8-2.8-2.4-5-4.9-6.1c-3.5-1.5-7.4-1.9-10.1-5.8
		c-0.2,1.3-0.4,2-0.5,2.7C168.1,162.7,167.5,162.6,166.9,162.5z M202.5,160.7c-0.2-0.1-0.3-0.2-0.5-0.4c-2.3,3.6-6,4.2-9.5,5.4
		c-2.7,0.9-4.2,3.2-5.2,5.8c-0.3,0.8,0,1.9,0,2.9c1-1.6,1.5-3.2,2.4-4.5c1.6-2.2,3.8-3.1,6.4-3.3c3.1-0.2,7.5-2.4,8.7-4.3
		c-0.7,0.2-1.4,0.3-2.1,0.5C202.6,162.1,202.5,161.4,202.5,160.7z M185.8,142.5c0.2,6.5,0.5,13,0.7,19.5c0.2,0,0.5,0,0.7,0
		C187.5,155.4,187.5,148.9,185.8,142.5z M167.2,192.5c-0.1,0.2-0.3,0.5-0.4,0.7c2.4,1.6,4.8,3.3,7.6,5.2
		C173.7,193.9,171.6,192.4,167.2,192.5z M205.3,192.9c-4.9-0.9-8,1.4-7.8,5.4C200.1,196.5,202.4,194.9,205.3,192.9z M163.8,160.3
		c-1.7-0.1-3.2-0.2-4.7-0.3C162.6,163.3,163,163.3,163.8,160.3z M212.5,159.9c-1.5,0.1-3,0.3-4.5,0.4
		C208.5,163.3,209.3,163.3,212.5,159.9z"/>
	<path class="st0" d="M70.3,535.8c-3.8,4-0.7,7.1,0.8,10.2c-0.4,0.2-0.6,0.3-0.6,0.3c-1.9-1.9-3.8-3.9-5.5-5.9
		c-0.3-0.4,0-1.5,0.3-2.2c0.7-1.4,1.5-2.7,2.4-4.2C68.5,534.5,69.3,535,70.3,535.8z"/>
	<path class="st0" d="M36.1,516.5c-1.6-0.7-2-1.8-1-3.6c1.4-2.7,3.5-5.2,3.1-8.7c0-0.4,1.2-1,1.8-1.5c0.2,0.1,0.3,0.3,0.5,0.4
		C39,507.4,37.6,511.8,36.1,516.5z"/>
	<path class="st0" d="M59.7,557c1.1,1.6,2,2.9,2.6,4.2c0.2,0.5,0,1.6-0.4,1.9c-0.4,0.3-1.4,0.2-1.9-0.2
		C58,561.4,58.8,559.5,59.7,557z"/>
	<path class="st0" d="M57.4,390.8c0.7-1.2,1.3-2.3,1.9-3.4C60.9,389.6,60.6,390.1,57.4,390.8z"/>
	<path class="st0" d="M97.4,366.4c-0.4-2-0.8-4-1.3-6.4C98.4,361.3,98.7,363.9,97.4,366.4C97.3,366.4,97.4,366.4,97.4,366.4z"/>
	<path class="st0" d="M427.2,137.9c0,0.3,0,0.6,0,1c-0.1,3.2-1.9,6.1-3.9,6.3c-2,0.2-4.9-2.4-5.6-5.1c-0.7-2.8-0.1-5.4,1.3-7.7
		c1.3-2.2,4.9-2.3,6.4-0.1c1.1,1.6,1.5,3.6,2.3,5.5C427.5,137.7,427.3,137.8,427.2,137.9z"/>
	<path d="M393.5,238.3c-2.8-0.5-6-2.9-7.2-5.7C388.8,234.6,391.2,236.5,393.5,238.3z"/>
	<path d="M174.7,205c-1.6-1.1-3.2-2.2-4.7-3.3c0.6,2.1,1.1,4.2,2,6.1c0.5,1,1.8,1.5,2.9,2.2c2,1.2,4,2.4,6,3.7
		c0.3,0.2,0.4,0.6,0.7,1.1c1.9-1.4,3.3-0.4,4.6,1.5c0.1-0.7,0.2-1.2,0.3-2.1c0.3,0.6,0.4,0.9,0.3,0.7c1.2-0.2,2.2-0.4,3.5-0.7
		c2.9-1.9,6.2-3.9,8.8-5.6c1.4-2.9,2.5-5.3,3.7-7.8c-1.9,1.4-3.8,2.9-5.7,4.3c-0.2-0.3-0.4-0.7-0.7-1c2.3-1.8,4.4-4,7-5.2
		c2.9-1.4,4.3,0.1,3.9,3.4c-0.1,1,0,2.2-0.5,3c-1.7,3.1-1,6.1-0.4,9.2c0.7,3.5,0.3,7.7-3.6,10.1c-1.2,0.7-2.1,2-3.1,3.1
		c-1.9,2.1-3.6,4.5-6.8,4.3c-0.2,0-0.4,0.2-0.5,0.3c-2.1,3-5.5,2.2-8.3,2.5c-1.5,0.2-3.2-1.5-4.7-2.3c-0.3-0.1-0.5-0.6-0.7-0.5
		c-2.8,0.7-4-1.9-5.7-3.1c-1.8-1.3-3.5-3-4.8-4.9c-1.2-1.9-2.1-4.2-2.5-6.4c-0.8-4.7-1.1-9.5-1.8-14.3c-0.5-3.6,1.5-5.9,4.6-4.3
		c2.5,1.2,4.5,3.4,6.7,5.2C175.1,204.5,174.9,204.8,174.7,205z M184.6,215c-2.5,1.2-2.7,1.6-3.2,5.8c-0.5,4.2-0.5,4.2,3.5,3.8
		c0.1,0,0.2-0.2,0.7-0.6C185.4,221.3,185.1,218.3,184.6,215z M185.8,234.4c0-2.2,0.1-4.2,0-6.1c-0.2-3.1-0.7-3.3-3.5-1.8
		C182.8,229.2,181.4,232.8,185.8,234.4z M189.3,215.9c-0.4,0-0.8,0-1.2,0c-0.3,2.5-0.7,5-0.9,7.6c0,0.4,1,1.2,1.6,1.3
		c0.5,0.1,1.7-0.6,1.6-0.9C190.2,221.2,189.7,218.5,189.3,215.9z M191.7,214c-1.6,3.8,0.1,6.9,0,10.1
		C193.9,223.5,193.9,219,191.7,214z M175.2,210.6c-2,3.4-1.9,10.2,0,11.3C175.3,218.2,176.2,214.7,175.2,210.6z M196.6,222.2
		c1.9-1.9,1.8-8.7-0.2-11.7C195.6,214.7,196.3,218.2,196.6,222.2z M179.5,224.2c0.2-0.1,0.4-0.2,0.6-0.3c-0.3-3.1,1.6-6.3-0.3-9.5
		c-0.8,2.8-1.2,5.6-1.5,8.5C178.2,223.3,179.1,223.8,179.5,224.2z M186.5,225.4c0.4,3.1,0.7,5.6,1,8.2c0.3,0,0.7,0,1,0.1
		c0.4-2.4,0.7-4.7,1.1-7.3C188.6,226.1,187.8,225.8,186.5,225.4z M174.5,228.8c0-3.1-0.1-5.9-2.7-7.9
		C170.8,223.6,171.8,226.6,174.5,228.8z M199.9,220.8c-2.6,2.2-2.9,4.9-2.7,8.2C199.2,226.5,201,224.3,199.9,220.8z M192.5,225.6
		c-2.4,1.2-3,3.9-1.7,7.1C192.7,230.7,193.3,228.4,192.5,225.6z M179.3,225.7c-0.9,3.2-0.3,5.2,1.8,6.9
		C182,227.9,181.7,226.8,179.3,225.7z M174.9,223.5c0.9,2.7,0.1,5.6,2.6,7.7C178.2,225.9,177.9,224.9,174.9,223.5z M196.8,223.4
		c-3.3,1.9-3.3,3.4-2.4,7.7C196.7,229.1,195.9,226.2,196.8,223.4z M194.8,221.9c0.2,0,0.4,0,0.6-0.1c-0.2-3.1-0.5-6.1-0.7-9.2
		c-0.3,0-0.6,0.1-0.8,0.1C192.8,216,194.9,218.8,194.8,221.9z M177.8,212.7c-0.3,0-0.5,0-0.8-0.1c-0.2,3-0.4,6.1-0.6,9.1
		c0.2,0,0.5,0,0.7,0.1C176.7,218.8,179,215.9,177.8,212.7z M171.7,218.9c0.2,0,0.4,0,0.6,0c0.2-3,0.5-6,0.7-9c-0.3,0-0.6,0-1-0.1
		C171.9,212.9,171.8,215.9,171.7,218.9z M199.4,218.9c0.2,0,0.4,0,0.6,0c-0.1-3-0.3-6-0.4-9c-0.3,0-0.6,0-1,0.1
		C198.9,213,199.1,215.9,199.4,218.9z"/>
	<path d="M200.7,189.5c-2.3-1.1-4.6-2.3-7-3.4c-0.1,0.1-0.2,0.1-0.3,0.2c1.5,1.8,3.1,3.5,4.6,5.2c-0.1,0.1-0.7,0.4-1.2,0.7
		c-5.3-3.2-5.9-9.9-10-14.5c1.1,0.1,1.8,0.1,2.5,0.2c4.4,0.6,7.9-1.4,11.4-4c3-2.3,6.6-3.8,9.9-5.5c0.7-0.4,1.6-0.3,2.4-0.4
		c0.3,3.1,0.8,5.9-1.2,8.5c-0.2,0.2,0.3,1,0.5,1.4c1.2,2.5,1,4.3-1.1,6c-3.5,2.9-7.5,3.4-11.7,2.6c-0.5-0.1-1-0.2-1.5-0.3
		c-0.1,0-0.1,0.1-0.9,0.4c1.6,1,2.8,1.7,4,2.4C200.8,189.1,200.7,189.3,200.7,189.5z"/>
	<path d="M184.6,177.4c-1.6,3.2-2.9,5.9-4.5,8.5c-1.2,2-2.7,3.7-4.2,5.5c-0.3,0.3-1,0.3-1.5,0.5c0.1-0.5,0-1.2,0.3-1.6
		c0.9-1.3,1.9-2.6,3.2-4.3c-2.4,1.1-4.3,2-6.1,2.8c0-0.1-0.1-0.2-0.1-0.3c1.4-0.9,2.7-1.9,4.1-2.8c-0.1-0.1-0.1-0.3-0.2-0.4
		c-1.9,0.5-3.8,1.2-5.7,1.5c-3.4,0.5-6.5-0.7-9.3-2.8c-2.1-1.6-2.5-3.5-1.2-5.8c0.6-1.1,0.5-1.8,0-3c-0.6-1.4-0.7-3-0.8-4.5
		c-0.1-0.8,0.1-1.6,0.2-2.7c0.7,0.1,1.6,0,2.2,0.3c3,1.5,6.3,2.8,9,4.8C174.4,176.5,178.8,179,184.6,177.4z"/>
	<path d="M178.3,200.3c1.2-3.3,2.2-6.4,3.6-9.4c0.8-1.8,2.3-3.2,3.3-4.8c0.5-0.8,0.6-1.8,0.7-2.1c0.8,1.4,2.1,3.1,2.9,5
		c1.6,3.6,3,7.2,4.3,10.9c0.3,0.7-0.3,2.1-0.9,2.8c-1.7,1.9-1.8,1.8-0.3,3.5c-0.1,0.2-0.2,0.3-0.3,0.5c-1.2-0.8-2.4-1.6-3.6-2.3
		c-1-0.6-1.9-1.2-3-1.7c-0.2-0.1-0.8,0.3-0.9,0.6c-1.3,2.3-3.4,2.7-6.3,2.8c1.3-0.7,2.1-1.1,3-1.7c-1.8-1.6-3.5-3.1-5.1-4.6
		c0.1-0.2,0.2-0.4,0.3-0.5C176.9,199.5,177.5,199.8,178.3,200.3z"/>
	<path d="M166.9,162.5c0.6,0.1,1.2,0.2,2.1,0.3c0.1-0.7,0.3-1.4,0.5-2.7c2.7,3.9,6.6,4.3,10.1,5.8c2.5,1.1,4.2,3.2,4.9,6.1
		c0.2,0.7,0,1.6-0.4,2.4c-0.6-1.4-0.9-3.1-1.8-4.2c-1.6-2.2-3.9-3.4-6.6-3.5C172.2,166.6,169.6,164.6,166.9,162.5z"/>
	<path d="M202.5,160.7c0.1,0.7,0.1,1.4,0.2,2.2c0.7-0.2,1.4-0.3,2.1-0.5c-1.2,1.9-5.6,4.1-8.7,4.3c-2.6,0.2-4.9,1-6.4,3.3
		c-0.9,1.3-1.3,2.9-2.4,4.5c0-1-0.3-2,0-2.9c1-2.6,2.6-4.9,5.2-5.8c3.5-1.2,7.1-1.8,9.5-5.4C202.2,160.5,202.3,160.6,202.5,160.7z"
		/>
	<path d="M185.8,142.5c1.6,6.4,1.7,12.9,1.4,19.5c-0.2,0-0.5,0-0.7,0C186.3,155.5,186.1,149,185.8,142.5z"/>
	<path d="M167.2,192.5c4.4-0.2,6.5,1.3,7.2,5.9c-2.8-1.9-5.2-3.5-7.6-5.2C167,193,167.1,192.8,167.2,192.5z"/>
	<path d="M205.3,192.9c-2.9,2-5.2,3.6-7.8,5.4C197.3,194.3,200.5,192,205.3,192.9z"/>
	<path d="M163.8,160.3c-0.8,3-1.3,3-4.7-0.3C160.6,160.1,162.1,160.2,163.8,160.3z"/>
	<path d="M212.5,159.9c-3.3,3.4-4.1,3.4-4.5,0.4C209.6,160.2,211,160.1,212.5,159.9z"/>
	<path class="st0" d="M184.6,215c0.4,3.3,0.8,6.3,1.1,9c-0.5,0.4-0.6,0.6-0.7,0.6c-4,0.4-4,0.4-3.5-3.8
		C182,216.6,182.2,216.2,184.6,215z"/>
	<path class="st0" d="M185.8,234.4c-4.4-1.7-2.9-5.2-3.5-7.9c2.8-1.5,3.3-1.3,3.5,1.8C185.9,230.3,185.8,232.2,185.8,234.4z"/>
	<path class="st0" d="M189.3,215.9c0.4,2.7,0.9,5.3,1.2,8c0,0.2-1.1,1-1.6,0.9c-0.6-0.1-1.6-0.9-1.6-1.3c0.2-2.5,0.6-5.1,0.9-7.6
		C188.5,215.9,188.9,215.9,189.3,215.9z"/>
	<path class="st0" d="M191.7,214c2.2,5,2.3,9.5,0,10.1C191.8,220.8,190.1,217.7,191.7,214z"/>
	<path class="st0" d="M175.2,210.6c1.1,4.1,0.1,7.7,0,11.3C173.2,220.8,173.1,214,175.2,210.6z"/>
	<path class="st0" d="M196.6,222.2c-0.3-4-1-7.5-0.2-11.7C198.4,213.5,198.5,220.3,196.6,222.2z"/>
	<path class="st0" d="M179.5,224.2c-0.4-0.4-1.3-0.9-1.2-1.3c0.3-2.8,0.7-5.7,1.5-8.5c2,3.2,0,6.3,0.3,9.5
		C179.9,224,179.7,224.1,179.5,224.2z"/>
	<path class="st0" d="M186.5,225.4c1.3,0.4,2,0.6,3.1,1c-0.4,2.5-0.8,4.9-1.1,7.3c-0.3,0-0.7,0-1-0.1
		C187.2,231.1,186.9,228.5,186.5,225.4z"/>
	<path class="st0" d="M174.5,228.8c-2.7-2.2-3.7-5.2-2.7-7.9C174.4,222.9,174.5,225.7,174.5,228.8z"/>
	<path class="st0" d="M199.9,220.8c1.1,3.5-0.7,5.7-2.7,8.2C197,225.7,197.4,223,199.9,220.8z"/>
	<path class="st0" d="M192.5,225.6c0.7,2.8,0.1,5.1-1.7,7.1C189.5,229.5,190.1,226.8,192.5,225.6z"/>
	<path class="st0" d="M179.3,225.7c2.4,1.2,2.7,2.3,1.8,6.9C179,230.9,178.4,228.9,179.3,225.7z"/>
	<path class="st0" d="M174.9,223.5c3,1.4,3.3,2.4,2.6,7.7C175,229.1,175.8,226.2,174.9,223.5z"/>
	<path class="st0" d="M196.8,223.4c-0.9,2.8-0.1,5.7-2.4,7.7C193.5,226.7,193.4,225.2,196.8,223.4z"/>
	<path class="st0" d="M194.8,221.9c0.1-3.1-2-6-0.9-9.2c0.3,0,0.6-0.1,0.8-0.1c0.2,3.1,0.5,6.1,0.7,9.2
		C195.2,221.9,195,221.9,194.8,221.9z"/>
	<path class="st0" d="M177.8,212.7c1.3,3.2-1.1,6-0.8,9.1c-0.2,0-0.5,0-0.7-0.1c0.2-3,0.4-6.1,0.6-9.1
		C177.2,212.7,177.5,212.7,177.8,212.7z"/>
	<path class="st0" d="M171.7,218.9c0.1-3,0.3-6,0.4-9c0.3,0,0.6,0,1,0.1c-0.2,3-0.5,6-0.7,9C172.1,218.9,171.9,218.9,171.7,218.9z"
		/>
	<path class="st0" d="M199.4,218.9c-0.3-3-0.5-6-0.8-8.9c0.3,0,0.6,0,1-0.1c0.1,3,0.3,6,0.4,9C199.8,218.9,199.6,218.9,199.4,218.9z
		"/>
</g>
</svg>
